<svg width="768" height="523" viewBox="0 0 768 523" fill="none" xmlns="http://www.w3.org/2000/svg">
<path d="M262.995 640.1C121.599 640.1 6.28619 535.698 6.28619 407.683C6.28619 279.667 121.599 175.266 262.995 175.266C404.391 175.266 519.705 279.667 519.705 407.683C519.705 535.698 404.391 640.1 262.995 640.1ZM262.995 177.751C122.972 177.751 9.03174 280.91 9.03174 407.683C9.03174 534.456 122.972 637.614 262.995 637.614C403.019 637.614 516.959 534.456 516.959 407.683C516.959 280.91 403.019 177.751 262.995 177.751Z" fill="white"/>
<path d="M262.995 619.385C133.954 619.385 29.1655 524.512 29.1655 407.682C29.1655 290.852 133.954 195.979 262.995 195.979C392.036 195.979 496.825 290.852 496.825 407.682C496.825 524.512 392.036 619.385 262.995 619.385ZM262.995 198.465C135.327 198.465 31.9111 292.509 31.9111 407.682C31.9111 523.269 135.785 616.899 262.995 616.899C390.663 616.899 494.079 522.855 494.079 407.682C494.079 292.095 390.206 198.465 262.995 198.465Z" fill="white"/>
<path d="M262.996 572.156C162.783 572.156 81.3317 498.412 81.3317 407.683C81.3317 316.953 162.783 243.209 262.996 243.209C363.208 243.209 444.66 316.953 444.66 407.683C444.202 498.412 362.751 572.156 262.996 572.156ZM262.996 245.695C164.613 245.695 84.0772 318.196 84.0772 407.683C84.0772 497.169 164.156 569.67 262.996 569.67C361.378 569.67 441.914 497.169 441.914 407.683C441.914 318.196 361.378 245.695 262.996 245.695Z" fill="white"/>
<path d="M262.995 568.013C165.528 568.013 85.9065 496.341 85.9065 407.683C85.9065 319.025 165.07 247.353 262.995 247.353C360.462 247.353 440.083 319.025 440.083 407.683C440.083 496.341 360.462 568.013 262.995 568.013ZM262.995 249.838C166.9 249.838 88.652 320.682 88.652 407.683C88.652 494.684 166.9 565.527 262.995 565.527C359.089 565.527 437.337 494.684 437.337 407.683C437.337 320.682 359.089 249.838 262.995 249.838Z" fill="white"/>
<path d="M262.995 686.5C93.2284 686.5 -44.9645 561.385 -44.9645 407.683C-44.9645 253.981 93.2284 128.865 262.995 128.865C432.762 128.865 570.955 253.981 570.955 407.683C570.955 561.385 432.762 686.5 262.995 686.5ZM262.995 131.35C94.6011 131.35 -42.219 255.224 -42.219 407.683C-42.219 560.142 94.6011 684.015 262.995 684.015C431.389 684.015 568.209 560.142 568.209 407.683C568.209 255.224 431.389 131.35 262.995 131.35Z" fill="white"/>
<path d="M262.995 734.143C64.4 734.143 -97.5876 587.899 -97.5876 407.682C-97.5876 227.466 63.9424 81.2212 262.995 81.2212C461.59 81.2212 623.578 227.466 623.578 407.682C623.578 587.899 461.59 734.143 262.995 734.143ZM262.995 83.7069C65.7728 83.7069 -94.8421 229.123 -94.8421 407.682C-94.8421 586.241 65.7728 731.657 262.995 731.657C460.217 731.657 620.832 586.241 620.832 407.682C620.832 229.123 460.217 83.7069 262.995 83.7069Z" fill="white"/>
<path d="M262.996 744.501C57.9942 744.501 -109.027 593.284 -109.027 407.682C-109.027 222.08 57.9942 70.8643 262.996 70.8643C467.997 70.8643 635.018 222.08 635.018 407.682C635.018 593.284 467.997 744.501 262.996 744.501ZM262.996 73.35C59.367 73.35 -106.281 223.323 -106.281 407.682C-106.281 592.042 59.367 742.015 262.996 742.015C466.624 742.015 632.272 592.042 632.272 407.682C632.272 223.323 466.624 73.35 262.996 73.35Z" fill="white"/>
<path d="M262.995 754.858C51.5875 754.858 -120.467 599.085 -120.467 407.682C-120.467 216.28 51.5875 60.5068 262.995 60.5068C474.403 60.5068 646.457 216.28 646.457 407.682C646.457 599.085 474.403 754.858 262.995 754.858ZM262.995 62.9926C52.9603 62.9926 -117.722 217.523 -117.722 407.682C-117.722 597.842 52.9603 752.372 262.995 752.372C473.03 752.372 643.712 597.842 643.712 407.682C643.254 217.523 472.572 62.9926 262.995 62.9926Z" fill="white"/>
<path d="M262.995 775.158C38.775 775.158 -143.347 610.271 -143.347 407.683C-143.347 205.094 38.775 39.7925 262.995 39.7925C486.758 39.7925 668.879 204.68 668.879 407.268C668.879 609.856 486.758 775.158 262.995 775.158ZM262.995 42.2782C40.6054 42.2782 -140.144 205.923 -140.144 407.268C-140.144 608.613 40.6054 772.258 262.995 772.258C485.385 772.258 666.134 608.613 666.134 407.268C666.134 205.923 485.385 42.2782 262.995 42.2782Z" fill="white"/>
<path d="M579.19 287.538C578.733 287.538 578.733 287.538 579.19 287.538C578.275 287.124 577.818 286.71 577.818 285.881L579.648 280.081C579.648 279.253 580.563 278.839 581.478 279.253C582.394 279.253 582.851 280.081 582.394 280.91L580.563 286.71C580.106 287.124 579.648 287.538 579.19 287.538Z" fill="white"/>
<path d="M592.462 299.967C592.004 299.967 592.004 299.967 592.462 299.967L585.598 298.31C584.683 298.31 584.225 297.481 584.683 296.653C584.683 295.824 585.598 295.41 586.513 295.824L592.92 297.481C593.835 297.481 594.292 298.31 593.835 299.138C593.377 299.553 592.92 299.967 592.462 299.967Z" fill="white"/>
<path d="M547.16 304.524C546.702 304.524 546.245 304.11 545.787 303.696C545.33 303.281 545.787 302.453 546.245 302.039L578.276 285.466C578.734 285.052 579.649 285.466 580.107 285.88C580.564 286.295 580.107 287.123 579.649 287.538L547.617 304.11C547.617 304.524 547.16 304.524 547.16 304.524Z" fill="white"/>
<path d="M586.056 298.311C585.598 298.311 585.14 297.896 584.683 297.482L577.819 286.71C577.361 286.296 577.819 285.467 578.276 285.053C578.734 284.639 579.649 285.053 580.107 285.467L586.971 296.239C587.428 296.653 586.971 297.482 586.513 297.896C586.513 298.311 586.056 298.311 586.056 298.311Z" fill="white"/>
<path d="M551.736 316.124C551.278 316.124 550.82 315.71 550.363 315.295C549.905 314.881 550.363 314.053 550.82 313.638L584.682 295.824C585.14 295.41 586.055 295.824 586.513 296.238C586.97 296.653 586.513 297.481 586.055 297.895L552.193 315.71C552.193 316.124 552.193 316.124 551.736 316.124Z" fill="white"/>
<path d="M495.909 228.709C495.451 228.709 494.994 228.295 494.536 227.881C494.079 227.467 494.536 226.638 494.994 226.224L528.856 208.409C529.313 207.995 530.228 208.409 530.686 208.823C531.144 209.238 530.686 210.066 530.228 210.48L496.367 228.295C496.367 228.709 496.366 228.709 495.909 228.709Z" fill="white"/>
<path d="M518.789 256.053C518.332 256.053 517.874 255.638 517.417 255.638C516.959 255.224 517.417 254.396 517.874 253.981L551.278 235.338C551.736 234.924 552.651 235.338 553.109 235.752C553.566 236.167 553.109 236.995 552.651 237.41L519.247 256.053C519.247 256.053 519.247 256.053 518.789 256.053Z" fill="white"/>
<path d="M505.062 238.237C504.604 238.237 504.147 237.823 503.689 237.823C503.231 237.409 503.689 236.58 504.147 236.166L536.178 219.594C536.636 219.18 537.551 219.594 538.009 220.009C538.466 220.423 538.009 221.252 537.551 221.666L505.519 238.237H505.062Z" fill="white"/>
<path d="M530.229 210.894C529.771 210.894 529.771 210.894 530.229 210.894C529.313 210.48 528.856 210.066 528.856 209.237L530.686 203.437C530.686 202.609 531.601 202.195 532.517 202.609C533.432 202.609 533.889 203.437 533.432 204.266L531.601 210.066C531.144 210.48 530.686 210.894 530.229 210.894Z" fill="white"/>
<path d="M537.093 221.667C536.635 221.667 536.177 221.252 535.72 220.838L528.856 210.066C528.398 209.652 528.856 208.823 529.314 208.409C529.771 207.995 530.686 208.409 531.144 208.823L538.008 219.595C538.465 220.009 538.008 220.838 537.55 221.252C537.55 221.666 537.093 221.667 537.093 221.667Z" fill="white"/>
<path d="M543.042 222.909L536.178 221.252C535.262 221.252 534.805 220.424 535.262 219.595C535.262 218.767 536.178 218.352 537.093 218.767L543.499 220.424C544.414 220.424 544.872 221.252 544.414 222.081C544.414 222.495 543.957 222.909 543.042 222.909Z" fill="white"/>
<path d="M611.223 329.381C610.765 329.381 610.308 328.967 609.85 328.553L511.468 174.437C511.01 174.022 511.468 173.194 511.925 172.78C512.383 172.365 513.298 172.78 513.756 173.194L612.138 327.724C612.596 328.138 612.138 328.967 611.681 329.381H611.223Z" fill="white"/>
<path d="M537.092 284.638C536.635 284.638 536.177 284.224 535.719 284.224C535.262 283.81 535.719 282.981 536.177 282.567L569.581 263.924C570.039 263.509 570.954 263.924 571.412 264.338C571.869 264.752 571.412 265.581 570.954 265.995L537.55 284.638C537.55 284.638 537.55 284.638 537.092 284.638Z" fill="white"/>
<path d="M128.92 122.65L122.056 120.993C121.141 120.993 120.684 120.164 121.141 119.336C121.141 118.507 122.056 118.093 122.972 118.507L129.378 120.164C130.293 120.164 130.751 120.993 130.293 121.821C130.293 122.236 129.378 122.65 128.92 122.65Z" fill="white"/>
<path d="M140.817 116.436C139.902 116.022 139.445 115.607 139.445 114.779L141.275 108.978C141.275 108.15 142.19 107.736 143.105 108.15C144.021 108.15 144.478 108.978 144.021 109.807L142.19 115.607C142.19 116.022 141.275 116.436 140.817 116.436Z" fill="white"/>
<path d="M147.682 151.651C147.225 151.651 146.767 151.237 146.31 150.822L128.006 121.822C127.548 121.408 128.006 120.579 128.463 120.165C128.921 119.75 129.836 120.165 130.294 120.579L148.598 149.579C149.055 149.994 148.598 150.822 148.14 151.237C148.14 151.651 147.682 151.651 147.682 151.651Z" fill="white"/>
<path d="M128.92 122.651C128.463 122.651 128.005 122.237 127.547 121.822C127.09 121.408 127.548 120.579 128.005 120.165L139.902 113.95C140.36 113.536 141.275 113.95 141.733 114.365C142.19 114.779 141.733 115.608 141.275 116.022L129.378 122.237C129.378 122.651 129.378 122.651 128.92 122.651Z" fill="white"/>
<path d="M160.495 147.093C160.037 147.093 159.579 146.679 159.122 146.679L139.445 116.021C138.988 115.607 139.445 114.778 139.903 114.364C140.361 113.95 141.276 114.364 141.733 114.778L161.41 145.436C161.867 145.85 161.41 146.679 160.952 147.093H160.495Z" fill="white"/>
<path d="M63.9423 197.638C63.4847 197.638 63.0271 197.223 62.5696 196.809L42.8931 166.151C42.4355 165.737 42.8931 164.908 43.3507 164.494C43.8083 164.08 44.7235 164.494 45.1811 164.908L64.8575 195.566C65.3151 195.981 64.8575 196.809 64.3999 197.223C64.3999 197.638 63.9423 197.638 63.9423 197.638Z" fill="white"/>
<path d="M94.1436 176.923C93.686 176.923 93.2284 176.509 92.7708 176.509L72.1792 146.265C71.7216 145.851 72.1792 145.022 72.6368 144.608C73.0944 144.193 74.0096 144.608 74.4672 145.022L95.0588 175.266C95.5164 175.68 95.0588 176.509 94.6012 176.923H94.1436Z" fill="white"/>
<path d="M74.4671 189.766C74.0095 189.766 73.5519 189.351 73.0943 188.937L54.7906 159.937C54.333 159.523 54.7906 158.694 55.2482 158.28C55.7058 157.866 56.621 158.28 57.0786 158.694L75.3823 187.694C75.8399 188.108 75.3823 188.937 74.9247 189.351C74.9247 189.766 74.9247 189.766 74.4671 189.766Z" fill="white"/>
<path d="M44.2665 166.98C43.8089 166.98 43.8089 166.98 44.2665 166.98L37.4026 165.323C36.4874 165.323 36.0298 164.495 36.4874 163.666C36.4874 162.837 37.4026 162.423 38.3178 162.837L44.7241 164.495C45.6392 164.495 46.0968 165.323 45.6392 166.152C45.1817 166.566 44.7241 166.98 44.2665 166.98Z" fill="white"/>
<path d="M44.2659 166.98C43.8083 166.98 43.3507 166.566 42.8931 166.151C42.4355 165.737 42.8931 164.909 43.3507 164.494L55.2481 158.28C55.7057 157.866 56.6209 158.28 57.0785 158.694C57.536 159.109 57.0785 159.937 56.6209 160.351L44.7235 166.566C44.7235 166.98 44.2659 166.98 44.2659 166.98Z" fill="white"/>
<path d="M56.1631 160.766C55.7055 160.766 55.7055 160.766 56.1631 160.766C55.2479 160.351 54.7903 159.937 54.7903 159.108L56.6207 153.308C56.6207 152.48 57.5358 152.066 58.451 152.48C59.3662 152.48 59.8238 153.308 59.3662 154.137L57.5359 159.937C57.0783 160.351 56.6207 160.766 56.1631 160.766Z" fill="white"/>
<path d="M4.91292 182.308C4.45532 182.308 3.99772 181.894 3.54012 181.48C3.08253 181.065 3.54014 180.237 3.99773 179.822L174.222 90.7502C174.68 90.3359 175.595 90.7502 176.052 91.1645C176.51 91.5788 176.052 92.4074 175.595 92.8217L5.82809 182.308C5.82809 182.308 5.37051 182.308 4.91292 182.308Z" fill="white"/>
<path d="M125.717 160.766C125.26 160.766 124.802 160.351 124.345 160.351L103.753 129.694C103.295 129.279 103.753 128.451 104.211 128.036C104.668 127.622 105.583 128.036 106.041 128.451L126.633 158.694C127.09 159.108 126.633 159.937 126.175 160.351L125.717 160.766Z" fill="white"/>
<path d="M545.329 299.967C545.329 299.967 544.872 299.967 544.872 299.552C544.872 299.138 544.872 299.138 544.872 298.724L580.564 280.081C581.022 280.081 581.021 280.081 581.479 280.081C581.479 280.495 581.479 280.495 581.479 280.91L545.329 299.967Z" fill="white"/>
<path d="M553.566 319.438C553.566 319.438 553.108 319.438 553.108 319.024C553.108 318.61 553.108 318.61 553.108 318.196L592.003 297.896C592.461 297.896 592.461 297.896 592.919 297.896C592.919 298.31 592.919 298.31 592.919 298.724L553.566 319.438Z" fill="white"/>
<path d="M493.165 224.565C493.165 224.565 492.707 224.565 492.707 224.151C492.707 223.737 492.707 223.737 492.707 223.323L531.602 203.023C532.06 203.023 532.06 203.023 532.518 203.023C532.518 203.437 532.518 203.437 532.518 203.851L493.165 224.565Z" fill="white"/>
<path d="M507.807 240.723C507.807 240.723 507.35 240.723 507.35 240.308C507.35 239.894 507.35 239.894 507.35 239.48L543.042 220.837C543.499 220.837 543.499 220.837 543.957 220.837C543.957 221.251 543.957 221.251 543.957 221.665L507.807 240.723Z" fill="white"/>
<path d="M575.988 347.61C565.464 347.61 556.312 345.953 548.99 341.395C538.466 334.767 532.517 322.338 526.111 308.667C523.365 302.867 520.162 296.652 516.959 290.852C513.298 284.638 508.722 278.838 504.604 273.452C497.282 263.923 490.418 254.809 487.215 244.452C484.47 236.166 484.012 227.051 485.385 217.108C488.13 199.708 497.282 183.965 505.977 168.636C505.977 168.222 506.434 168.222 506.892 168.222C507.349 168.222 507.349 168.636 507.349 169.051C498.655 184.379 489.503 200.123 486.758 217.108C485.385 226.637 485.842 235.751 488.588 244.037C491.791 254.395 498.655 263.509 505.977 273.038C510.095 278.423 514.671 284.223 518.332 290.852C521.535 296.652 524.738 302.867 527.483 308.667C533.89 321.924 539.838 334.353 549.905 340.981C565.006 350.51 590.174 346.367 614.426 342.638C614.884 342.638 614.884 342.638 614.884 343.053C614.884 343.467 614.884 343.467 614.426 343.467C601.613 345.538 588.343 347.61 575.988 347.61Z" fill="white"/>
<path d="M143.106 152.479C143.106 152.479 142.649 152.479 142.649 152.065L122.057 120.164C122.057 119.75 122.057 119.75 122.057 119.335C122.515 119.335 122.515 119.335 122.972 119.335L143.564 151.651C144.022 152.065 144.022 152.479 143.106 152.479C143.564 152.479 143.564 152.479 143.106 152.479Z" fill="white"/>
<path d="M165.07 145.022C165.07 145.022 164.613 145.022 164.613 144.608L142.191 109.394C142.191 108.979 142.191 108.979 142.191 108.565C142.648 108.565 142.648 108.565 143.106 108.565L165.528 143.78C165.528 144.608 165.528 145.022 165.07 145.022Z" fill="white"/>
<path d="M60.2815 199.708C60.2815 199.708 59.8239 199.709 59.8239 199.294L37.4019 164.08C37.4019 163.665 37.4019 163.665 37.4019 163.251C37.8595 163.251 37.8595 163.251 38.3171 163.251L60.7391 198.466C60.7391 199.294 60.7391 199.708 60.2815 199.708Z" fill="white"/>
<path d="M78.1277 186.452C78.1277 186.452 77.6701 186.452 77.6701 186.037L57.0784 153.723C57.0784 153.308 57.0784 153.308 57.0784 152.894C57.536 152.894 57.536 152.894 57.9936 152.894L78.5853 185.209C78.5853 186.037 78.5853 186.452 78.1277 186.452Z" fill="white"/>
<path d="M63.4852 206.751C59.8245 206.751 56.1637 206.337 52.503 205.922C33.2841 203.437 15.8956 195.151 -1.03527 187.279C-1.49287 187.279 -1.49286 186.865 -1.49286 186.865C-1.49286 186.451 -1.03526 186.451 -0.577671 186.451C16.3532 194.322 33.7417 202.608 52.503 205.094C63.0276 206.337 73.0947 205.922 82.2465 203.437C93.6863 200.537 103.753 194.322 114.278 187.694C120.227 183.965 126.633 179.822 133.954 176.508C140.361 173.608 147.225 170.708 153.631 168.222C168.274 162.422 182.002 157.036 189.323 147.922C199.848 134.25 195.272 111.465 191.153 89.093C191.153 88.6787 191.153 88.6787 191.611 88.6787C192.069 88.6787 192.069 88.6787 192.069 89.093C196.187 111.465 200.763 134.25 190.238 148.336C182.917 157.865 169.189 163.251 154.088 169.051C147.682 171.536 140.818 174.436 134.412 177.336C127.548 180.651 121.142 184.794 115.193 188.522C104.669 195.151 94.6015 201.365 83.1617 204.265C76.7554 205.922 70.3491 206.751 63.4852 206.751Z" fill="white"/>
<path d="M427.271 696.443L441.914 647.142L427.271 696.443ZM90.9407 693.128L101.923 655.428L90.9407 693.128ZM418.577 688.986L433.22 639.271L418.577 688.986ZM440.999 688.571L451.066 655.014L440.999 688.571ZM81.7889 686.086L95.5167 640.099L81.7889 686.086ZM73.0947 678.214L81.7889 649.214L73.0947 678.214ZM456.557 674.9L459.76 663.3L456.557 674.9ZM411.713 674.071L419.95 645.485L411.713 674.071ZM64.4004 669.928L66.6884 662.471L64.4004 669.928ZM47.4695 650.871L57.5365 617.313L47.4695 650.871ZM475.318 648.385L481.267 628.085L475.318 648.385ZM487.216 647.142L490.419 635.956L487.216 647.142ZM37.86 645.899L41.9784 631.813L37.86 645.899ZM466.624 640.099L472.573 620.213L466.624 640.099ZM63.0276 636.785L67.6035 621.456L63.0276 636.785ZM457.93 632.228L462.048 618.97L457.93 632.228ZM519.247 614.828L524.738 596.184L519.247 614.828ZM2.16785 613.999L9.48934 588.727L2.16785 613.999ZM14.5229 610.27L23.2171 580.856L14.5229 610.27ZM510.095 607.37L515.586 588.727L510.095 607.37ZM-6.52639 605.713L-5.61122 602.399L-6.52639 605.713ZM500.943 599.499L506.435 580.441L500.943 599.499ZM30.081 594.942L31.4538 589.97L30.081 594.942ZM-24.3725 589.97L-8.81435 537.769L-24.3725 589.97ZM548.991 589.556L559.058 555.17L548.991 589.556ZM-33.0668 581.684L-20.2542 539.012L-33.0668 581.684ZM540.296 581.27L548.533 553.512L540.296 581.27ZM563.634 577.541L569.582 557.241L563.634 577.541ZM-9.27195 576.713L-1.0353 548.541L-9.27195 576.713ZM-42.2186 573.813L-33.0668 542.741L-42.2186 573.813ZM531.144 573.398L537.093 553.098L531.144 573.398ZM-50.9128 565.527L-45.4217 547.712L-50.9128 565.527ZM522.45 565.527L526.111 553.512L522.45 565.527ZM6.28619 562.627L7.20138 560.141L6.28619 562.627ZM575.989 346.781L589.716 299.552L575.989 346.781ZM587.428 346.367L598.868 308.252L587.428 346.367ZM565.006 345.953L576.446 306.595L565.006 345.953ZM598.868 345.124L606.19 320.681L598.868 345.124ZM610.766 343.467L613.054 335.595L610.766 343.467ZM557.685 332.281L563.176 313.638L557.685 332.281ZM544.872 299.138L552.194 275.109L544.872 299.138ZM558.142 292.509L565.464 267.237L558.142 292.509ZM571.413 285.466L575.531 272.209L571.413 285.466ZM538.008 285.052L538.924 282.566L538.008 285.052ZM525.653 251.08L532.517 227.465L525.653 251.08ZM514.671 249.423L519.247 234.094L514.671 249.423ZM538.924 243.623L544.872 224.151L538.924 243.623ZM489.504 220.837L502.774 176.093L489.504 220.837ZM500.943 220.008L513.756 176.093L500.943 220.008ZM514.214 212.965L521.535 188.108L514.214 212.965ZM527.484 205.922L529.314 199.708L527.484 205.922ZM44.7239 203.851L50.6726 183.965L44.7239 203.851ZM56.6213 202.194L58.4517 196.394L56.6213 202.194ZM34.1993 201.365L42.8936 171.95L34.1993 201.365ZM24.1323 198.051L33.2841 166.565L24.1323 198.051ZM14.0653 193.494L20.014 173.193L14.0653 193.494ZM4.45581 189.351C3.99822 189.351 3.99822 189.351 4.45581 189.351L7.20138 180.651L4.45581 189.351ZM84.9921 181.479L88.6528 168.636L84.9921 181.479ZM74.4674 180.236L81.3313 157.036L74.4674 180.236ZM66.6884 168.222L73.5523 145.85L66.6884 168.222ZM125.718 159.107L132.582 135.079L125.718 159.107ZM58.9093 156.207L59.8245 152.893L58.9093 156.207ZM138.073 154.136L139.903 147.507L138.073 154.136ZM117.481 147.507L124.803 123.064L117.481 147.507ZM164.156 143.364L179.256 91.578L164.156 143.364ZM175.595 141.707L191.153 89.0923L175.595 141.707ZM187.95 138.807L195.272 113.535L187.95 138.807ZM109.702 136.321L112.905 124.721L109.702 136.321ZM156.376 131.35L166.443 96.9638L156.376 131.35ZM148.597 118.921L153.173 103.592L148.597 118.921Z" fill="white"/>
<path d="M85.9072 125.136C85.9072 125.136 85.4496 125.136 85.4496 124.722C85.4496 124.308 85.4496 124.308 85.4496 123.893L198.933 64.6499C199.39 64.6499 199.39 64.6499 199.848 64.6499C199.848 65.0642 199.848 65.0642 199.848 65.4785L85.9072 125.136Z" fill="white"/>
<path d="M92.7721 135.908C92.7721 135.908 92.3145 135.908 92.3145 135.493C92.3145 135.079 92.3145 135.079 92.3145 134.665L205.797 75.4214C206.255 75.4214 206.255 75.4214 206.713 75.4214C206.713 75.8357 206.713 75.8357 206.713 76.25L92.7721 135.908Z" fill="white"/>
<path d="M220.897 116.85C220.897 116.85 220.44 116.85 220.44 116.436L209 98.6215C209 98.2073 209 98.2073 209 97.793C209.457 97.793 209.457 97.793 209.915 97.793L221.355 115.607C221.355 116.022 221.355 116.436 220.897 116.85C220.897 116.436 220.897 116.85 220.897 116.85Z" fill="white"/>
<path d="M303.721 116.85H220.897C220.439 116.85 220.439 116.436 220.439 116.436C220.439 116.022 220.897 116.022 220.897 116.022H303.721C304.179 116.022 304.179 116.436 304.179 116.436C304.179 116.436 304.179 116.85 303.721 116.85Z" fill="white"/>
<path d="M198.017 80.8071C198.017 80.8071 197.559 80.8071 197.559 80.3928L190.695 70.0356C190.695 69.6213 190.695 69.6213 190.695 69.207C191.153 69.207 191.153 69.207 191.61 69.207L198.474 79.9786C198.932 80.3928 198.474 80.8071 198.017 80.8071C198.474 80.8071 198.017 80.8071 198.017 80.8071Z" fill="white"/>
<path d="M87.2797 137.151H-201.003C-201.461 137.151 -201.461 136.737 -201.461 136.737C-201.461 136.322 -201.003 136.322 -201.003 136.322H87.2797C87.7373 136.322 87.7373 136.737 87.7373 136.737C87.7373 137.151 87.7373 137.151 87.2797 137.151Z" fill="white"/>
<path d="M766.805 251.909H565.007C564.549 251.909 564.549 251.495 564.549 251.495C564.549 251.081 565.007 251.081 565.007 251.081H766.805C767.262 251.081 767.262 251.495 767.262 251.495C767.262 251.495 767.262 251.909 766.805 251.909Z" fill="white"/>
<path d="M766.804 408.097H670.252C669.795 408.097 669.795 407.682 669.795 407.682C669.795 407.268 670.252 407.268 670.252 407.268H766.804C767.262 407.268 767.262 407.682 767.262 407.682C767.262 408.097 767.262 408.097 766.804 408.097Z" fill="white"/>
<path d="M766.804 408.097H670.252C669.795 408.097 669.795 407.682 669.795 407.682C669.795 407.268 670.252 407.268 670.252 407.268H766.804C767.262 407.268 767.262 407.682 767.262 407.682C767.262 408.097 767.262 408.097 766.804 408.097Z" fill="white"/>
<path d="M338.956 344.71C338.498 344.71 338.498 344.71 338.956 344.71C314.704 319.024 267.114 307.424 232.337 318.61C231.879 318.61 231.879 318.61 231.422 318.196C231.422 317.781 231.422 317.781 231.879 317.367C267.114 305.767 315.161 317.367 338.956 343.467C339.414 344.296 339.414 344.296 338.956 344.71Z" fill="white"/>
<path d="M380.139 397.739L362.293 384.068C361.835 384.068 361.835 383.654 362.293 383.239C362.293 382.825 362.75 382.825 363.208 383.239L381.054 396.911C381.054 396.911 381.054 397.325 380.139 397.739C380.596 397.739 380.596 397.739 380.139 397.739Z" fill="white"/>
<path d="M428.644 397.739H380.139C379.681 397.739 379.681 397.325 379.681 397.325C379.681 396.911 380.139 396.911 380.139 396.911H428.644C429.101 396.911 429.101 397.325 429.101 397.325C429.101 397.325 429.101 397.739 428.644 397.739Z" fill="white"/>
<path d="M363.666 387.796C363.208 387.796 363.208 387.796 363.208 387.382C362.75 385.725 361.835 381.996 360.92 379.925C360.92 379.51 360.92 379.51 361.378 379.096C361.835 379.096 361.835 379.096 362.293 379.51C362.75 381.168 364.123 384.896 364.581 386.968C364.123 387.382 364.123 387.382 363.666 387.796Z" fill="white"/>
<path d="M420.407 459.469H361.378C360.92 459.469 360.92 459.055 360.92 459.055C360.92 458.641 361.378 458.641 361.378 458.641H420.407C420.865 458.641 420.865 459.055 420.865 459.055C420.865 459.055 420.865 459.469 420.407 459.469Z" fill="white"/>
<path d="M349.938 458.226C349.48 457.812 349.48 457.812 349.48 457.398C354.972 450.355 361.378 436.683 362.751 428.397C362.751 427.983 363.208 427.983 363.208 427.983C363.666 427.983 363.666 428.397 363.666 428.397C361.835 436.683 355.429 450.769 349.938 457.812C350.396 457.812 350.396 458.226 349.938 458.226Z" fill="white"/>
<path d="M361.377 459.468C360.919 459.468 360.919 459.468 360.919 459.054L357.716 443.725C357.716 443.311 357.716 443.311 358.174 443.311C358.631 443.311 358.631 443.311 358.631 443.725L361.835 459.054C362.292 459.054 361.835 459.468 361.377 459.468Z" fill="white"/>
<path d="M262.996 501.312C242.861 501.312 222.727 496.341 207.627 486.812C207.169 486.812 207.169 486.398 207.627 485.984C207.627 485.569 208.084 485.569 208.542 485.984C238.743 505.041 287.705 505.041 318.364 485.984C318.822 485.984 318.822 485.984 319.279 485.984C319.279 486.398 319.279 486.398 319.279 486.812C303.264 496.755 283.13 501.312 262.996 501.312Z" fill="white"/>
<path d="M182.917 50.1494L176.51 53.4638L191.153 69.6216L182.917 50.1494Z" fill="white"/>
<path d="M212.66 96.5503L206.254 99.8647L198.017 80.3926L212.66 96.5503Z" fill="white"/>
<path d="M243.319 104.422H245.607C245.607 104.422 246.064 104.422 246.064 104.837L246.522 105.251V105.665L246.064 106.08H243.776V109.808C243.776 110.223 243.776 110.223 243.776 110.223H243.319H242.861L242.403 109.808V106.08H236.455C235.997 106.08 235.997 106.08 235.997 105.665L235.54 105.251L238.743 90.3362C238.743 90.3362 238.743 89.9219 239.2 89.9219H239.658H240.115L240.573 90.3362L237.37 104.422H241.946V100.694C241.946 100.694 241.946 100.279 242.403 100.279L242.861 99.8651H243.319L243.776 100.279V104.422H243.319Z" fill="white"/>
<path d="M255.673 100.693H258.877C258.877 100.693 259.334 100.693 259.334 101.107L259.792 101.522V101.936L259.334 102.35H256.131V105.25C256.131 105.665 256.131 105.665 256.131 105.665H255.673H255.216L254.758 105.25V102.35H251.555C251.098 102.35 251.098 102.35 251.098 101.936V101.522V101.107L251.555 100.693H254.758V97.793C254.758 97.793 254.758 97.3787 255.216 97.3787L255.673 96.9644H256.131L256.589 97.3787V100.693H255.673ZM258.877 109.808H250.64C250.182 109.808 250.182 109.808 250.182 109.393V108.979V108.565L250.64 108.15H258.877C258.877 108.15 259.334 108.15 259.334 108.565L259.792 108.979V109.393C259.334 109.808 259.334 109.808 258.877 109.808Z" fill="white"/>
<path d="M274.435 106.079C274.435 107.322 273.977 108.15 273.062 109.393C272.147 110.222 270.774 110.636 269.402 110.636H267.571C266.198 110.636 265.283 110.222 264.368 109.393C263.453 108.565 262.995 107.322 262.995 106.079V94.0642C262.995 92.8213 263.453 91.9926 264.368 90.7497C265.283 89.9211 266.656 89.5068 268.029 89.5068H269.859C271.232 89.5068 272.147 89.9211 273.52 90.7497C274.435 91.5783 274.893 92.8213 274.893 94.0642V106.079H274.435ZM273.062 106.079V94.0642C273.062 93.2356 272.605 92.407 272.147 91.9926C271.69 91.5783 270.774 91.164 269.859 91.164H268.029C267.114 91.164 266.198 91.5783 265.741 91.9926C265.283 92.407 264.826 93.2356 264.826 94.0642V106.079C264.826 106.908 265.283 107.736 265.741 108.15C266.198 108.565 267.114 108.979 268.029 108.979H269.859C270.774 108.979 271.69 108.565 272.147 108.15C272.605 107.736 273.062 106.908 273.062 106.079Z" fill="white"/>
<path d="M278.553 113.122C278.553 113.536 278.553 113.536 278.096 113.536H277.638C277.18 113.536 277.18 113.536 277.18 113.122L276.723 112.707V112.293L277.638 109.393C277.638 109.393 277.638 108.979 278.096 108.979H278.553H279.011L279.468 109.393V109.807L278.553 113.122Z" fill="white"/>
<path d="M292.281 106.079C292.281 107.322 291.823 108.15 290.908 109.393C289.993 110.222 288.62 110.636 287.247 110.636H283.129C282.671 110.636 282.671 110.636 282.671 110.222V109.808V109.393L283.129 108.979H287.247C288.163 108.979 289.078 108.565 289.535 108.15C289.993 107.736 290.45 106.908 290.45 106.079V103.179C290.45 102.35 289.993 101.522 289.535 101.107C289.078 100.693 288.163 100.279 287.247 100.279H283.129C282.671 100.279 282.214 99.8644 282.214 99.4501V90.3354C282.214 89.9211 282.671 89.5068 283.129 89.5068H291.366C291.366 89.5068 291.823 89.5068 291.823 89.9211L292.281 90.3354V90.7497L291.823 91.164H284.502V98.6215H287.705C289.078 98.6215 289.993 99.0358 291.366 99.8644C292.281 100.693 292.738 101.936 292.738 103.179V106.079H292.281Z" fill="white"/>
<path d="M744.84 347.196V345.124C744.84 345.124 744.84 344.71 745.298 344.71L745.755 344.295H746.213L746.671 344.71V346.781H750.789C751.247 346.781 751.247 346.781 751.247 347.196V347.61V348.024L750.789 348.438H746.671V353.824C746.671 354.239 746.671 354.239 746.671 354.239H746.213L729.74 351.339C729.74 351.339 729.282 351.339 729.282 350.924V350.51V350.096L729.74 349.681L745.298 352.582V348.438H741.18C741.18 348.438 740.722 348.438 740.722 348.024L740.264 347.61V347.196L740.722 346.781H744.84V347.196Z" fill="white"/>
<path d="M738.892 334.768C739.35 333.939 739.807 333.525 740.722 333.111C741.638 332.697 742.553 332.282 743.468 332.282H746.671C748.044 332.282 749.417 332.697 750.332 333.525C751.247 334.354 751.705 335.597 751.705 336.839V340.568C751.705 340.982 751.705 340.982 751.705 340.982H751.247H750.789L750.332 340.568V336.839C750.332 336.011 749.874 335.182 749.417 334.768C748.959 334.354 748.044 333.939 747.129 333.939H743.926C743.01 333.939 742.095 334.354 741.638 334.768C741.18 335.182 740.722 336.011 740.722 336.839V337.668C740.722 338.082 740.722 338.082 740.722 338.082H740.265H739.807L739.35 337.668C739.35 336.839 738.892 336.011 738.434 335.597C737.977 335.182 737.062 334.768 736.146 334.768H734.316C733.401 334.768 732.486 335.182 732.028 335.597C731.571 336.011 731.113 336.839 731.113 337.668V340.568C731.113 340.982 731.113 340.982 731.113 340.982H730.655H730.198L729.74 340.568V337.668C729.74 336.425 730.198 335.182 731.113 334.354C732.028 333.525 733.401 333.111 734.774 333.111H736.604H737.062H737.519H737.977C738.434 333.111 738.434 333.111 738.892 333.525C737.977 333.525 738.434 333.939 738.892 334.768Z" fill="white"/>
<path d="M754.449 328.553C754.449 328.553 754.907 328.553 754.907 328.967V329.381C754.907 329.796 754.907 329.796 754.449 329.796L753.991 330.21H753.534L750.331 329.381C750.331 329.381 749.873 329.381 749.873 328.967V328.553V328.138L750.331 327.724H750.788L754.449 328.553Z" fill="white"/>
<path d="M746.671 316.124C748.044 316.124 748.959 316.538 750.332 317.367C751.247 318.195 751.705 319.438 751.705 320.681V324.41C751.705 324.824 751.705 324.824 751.705 324.824H751.247H750.789L750.332 324.41V320.681C750.332 319.853 749.874 319.024 749.417 318.61C748.959 318.195 748.044 317.781 747.129 317.781H743.925C743.01 317.781 742.095 318.195 741.637 318.61C741.18 319.024 740.722 319.853 740.722 320.681V324.41C740.722 324.824 740.265 325.238 739.807 325.238H729.74C729.283 325.238 728.825 324.824 728.825 324.41V316.953C728.825 316.953 728.825 316.538 729.283 316.538L729.74 316.124H730.198L730.655 316.538V323.581H738.892V320.681C738.892 319.438 739.35 318.61 740.265 317.367C741.18 316.538 742.553 316.124 743.925 316.124H746.671Z" fill="white"/>
<path d="M732.027 306.596V304.939C732.027 304.939 732.027 304.525 732.485 304.525L732.942 304.11H733.4L733.857 304.525V306.182L736.145 305.353H736.603C736.603 305.353 737.061 305.353 737.061 305.767V306.182C737.061 306.182 737.061 306.596 736.603 307.01L734.773 307.839L736.603 308.667C737.061 308.667 737.061 309.081 737.061 309.496C737.061 309.91 737.061 309.91 737.061 309.91L736.603 310.324H736.145L733.857 309.496V311.153C733.857 311.567 733.857 311.567 733.4 311.567H732.942H732.485L732.027 311.153V309.496L729.739 310.324H729.281C729.281 310.324 728.824 310.324 728.824 309.91L728.366 309.496C728.366 309.496 728.366 309.081 728.824 308.667L730.654 307.839L728.824 307.01C728.366 307.01 728.366 306.596 728.366 306.182C728.366 305.767 728.366 305.767 728.366 305.767L728.824 305.353H729.281L732.027 306.596Z" fill="white"/>
<path d="M749.872 512.083C751.245 512.083 752.16 512.498 753.533 513.326C754.448 514.155 754.906 515.398 754.906 516.64V518.298C754.906 519.54 754.448 520.369 753.533 521.198C752.618 522.026 751.245 522.44 749.872 522.44H736.602C735.229 522.44 734.314 522.026 732.941 521.198C732.026 520.369 731.569 519.126 731.569 517.883V516.226C731.569 514.983 732.026 514.155 732.941 512.912C733.857 512.083 735.229 511.669 736.602 511.669H749.872V512.083ZM749.872 513.74H736.602C735.687 513.74 734.772 514.155 734.314 514.569C733.857 514.983 733.399 515.812 733.399 516.64V518.298C733.399 519.126 733.857 519.955 734.314 520.369C734.772 520.783 735.687 521.198 736.602 521.198H749.872C750.788 521.198 751.703 520.783 752.16 520.369C752.618 519.955 753.075 519.126 753.075 518.298V516.64C753.075 515.812 752.618 514.983 752.16 514.569C751.703 514.155 750.788 513.74 749.872 513.74Z" fill="white"/>
<path d="M735.229 502.969V501.312C735.229 501.312 735.229 500.898 735.687 500.898C736.145 500.898 736.145 500.483 736.145 500.483H736.602L737.06 500.898V502.555L739.348 501.726H739.805C739.805 501.726 740.263 501.726 740.263 502.14V502.555C740.263 502.555 740.263 502.969 739.805 503.383L737.975 504.212L739.805 505.04C740.263 505.04 740.263 505.454 740.263 505.869C740.263 506.283 740.263 506.283 740.263 506.283L739.805 506.697H739.348L737.06 505.869V507.526C737.06 507.94 737.06 507.94 736.602 507.94H736.145H735.687L735.229 507.526V505.869L732.941 506.697H732.484C732.484 506.697 732.026 506.697 732.026 506.283L731.569 505.869C731.569 505.869 731.569 505.454 732.026 505.04L733.857 504.212L732.026 503.383C731.569 503.383 731.569 502.969 731.569 502.555C731.569 502.14 731.569 502.14 731.569 502.14L732.026 501.726H732.484L735.229 502.969Z" fill="white"/>
<path d="M341.701 342.225L335.752 346.368L352.225 360.868L341.701 342.225Z" fill="white"/>
<path d="M233.71 321.51L230.506 315.296L211.288 326.482L233.71 321.51Z" fill="white"/>
<path d="M287.247 304.109C286.789 306.181 285.416 307.838 284.044 309.081C282.213 310.738 280.383 311.566 277.637 311.566H277.18C277.18 311.566 276.722 311.566 276.722 311.152V310.738V310.324H277.18C277.637 310.324 278.095 310.324 278.553 309.909H279.468H279.925H280.383C281.298 309.495 282.213 309.081 282.671 308.252C283.128 307.838 283.586 307.009 284.044 306.595C284.501 305.766 284.959 305.352 284.959 304.524L280.383 303.281C279.01 302.866 278.095 302.452 277.18 301.209C276.722 299.966 276.265 299.138 276.722 297.895L277.637 294.995C278.095 293.752 278.553 292.923 279.925 292.509C281.298 291.681 282.213 291.681 283.586 292.095L284.959 292.509C286.332 292.923 287.247 293.338 288.162 294.581C288.62 294.995 288.62 295.823 288.62 296.238V297.066V297.481V297.895L287.247 304.109ZM285.874 302.866L287.704 297.066C288.162 296.238 287.704 295.409 287.247 294.995C286.789 294.166 286.332 293.752 285.416 293.752L284.044 293.338C283.128 292.923 282.213 293.338 281.756 293.752C280.841 294.166 280.383 294.581 280.383 295.409L279.468 298.309C279.468 299.138 279.468 299.966 279.925 300.381C280.383 301.209 280.841 301.623 281.756 301.623L285.874 302.866Z" fill="white"/>
<path d="M300.059 312.395C299.602 313.638 299.144 314.467 297.771 314.881C296.398 315.295 295.483 315.709 294.11 315.295L292.738 314.881C291.365 314.467 290.45 314.052 289.992 312.809C289.077 311.567 289.077 310.738 289.535 309.495L292.738 297.895C293.195 296.652 293.653 295.824 295.026 295.41C296.398 294.581 297.314 294.581 298.686 294.995L300.059 295.41C301.432 295.824 302.347 296.238 303.262 297.481C304.178 298.724 304.178 299.552 303.72 300.795L300.059 312.395ZM298.229 312.395L301.432 300.795C301.89 299.967 301.432 299.138 300.974 298.724C300.517 297.895 300.059 297.481 299.144 297.481L297.771 297.067C296.856 296.652 295.941 297.067 295.483 297.481C294.568 297.895 294.11 298.31 294.11 299.138L290.907 310.738C290.907 311.567 290.907 312.395 291.365 312.809C291.823 313.638 292.28 314.052 293.195 314.052L294.568 314.467C295.483 314.881 296.398 314.467 296.856 314.052C297.771 313.638 298.229 313.224 298.229 312.395Z" fill="white"/>
<path d="M312.415 303.28C312.415 304.109 311.957 304.523 311.042 304.937C310.127 305.352 309.669 305.352 308.754 305.352C307.839 305.352 307.381 304.937 306.924 304.109C306.466 303.28 306.466 302.866 306.466 302.038C306.466 301.209 306.924 300.795 307.839 300.381C308.754 299.966 309.212 299.966 310.127 299.966C311.042 299.966 311.5 300.381 311.957 301.209C312.415 302.038 312.415 302.452 312.415 303.28ZM310.584 302.866C310.584 302.452 310.584 302.038 310.584 302.038C310.584 301.623 310.127 301.623 309.669 301.209C309.212 301.209 308.754 301.209 308.754 301.209C308.297 301.209 308.297 301.623 307.839 302.038C307.839 302.452 307.839 302.866 307.839 303.28C307.839 303.695 308.297 303.695 308.754 304.109C309.212 304.109 309.669 304.109 309.669 304.109C310.584 303.695 310.584 303.28 310.584 302.866Z" fill="white"/>
<path d="M367.326 386.553L360.004 387.382L365.953 407.683L367.326 386.553Z" fill="white"/>
<path d="M358.173 381.168L365.037 378.268L352.225 360.868L358.173 381.168Z" fill="white"/>
<path d="M403.019 392.354H395.24H394.782V391.939C394.782 391.939 394.782 391.939 394.782 391.525L402.104 381.582L402.561 381.168V380.754C402.561 380.339 402.561 380.339 402.561 379.925C402.561 379.096 402.104 378.268 401.646 377.854C401.189 377.439 401.189 377.439 400.731 377.439C400.273 377.439 399.816 377.025 399.358 377.025C398.901 377.025 397.985 377.025 397.528 377.439C397.07 377.854 396.613 378.268 396.155 379.096V379.511C396.155 379.511 396.155 379.511 395.697 379.511H395.24V379.096V378.682C395.697 377.854 396.155 377.025 397.07 376.611C397.985 376.197 398.443 375.782 399.358 375.782C400.731 375.782 401.646 376.197 402.561 377.025C403.477 377.854 403.934 378.682 403.934 379.925C403.934 380.339 403.934 380.754 403.934 381.168C403.934 381.582 403.477 381.996 403.477 382.411L397.07 391.525H403.477H403.934V391.939V392.354C403.477 392.354 403.477 392.354 403.019 392.354Z" fill="white"/>
<path d="M415.832 389.038C415.832 389.866 415.374 390.695 414.459 391.523C413.544 392.352 412.629 392.766 411.713 392.766H410.341C409.425 392.766 408.51 392.352 407.595 391.938C406.68 391.109 406.222 390.28 406.222 389.452V379.923C406.222 379.095 406.68 378.266 407.137 377.438C408.053 376.609 408.968 376.195 409.883 376.195H411.256C412.171 376.195 413.086 376.609 414.001 377.438C414.917 378.266 415.374 379.095 415.374 379.923V389.038H415.832ZM414.459 389.038V379.509C414.459 378.681 414.001 378.266 413.544 377.852C413.086 377.438 412.629 377.023 411.713 377.023H410.341C409.425 377.023 408.968 377.438 408.51 377.852C408.053 378.266 407.595 378.681 407.595 379.509V389.038C407.595 389.866 408.053 390.28 408.51 390.695C408.968 391.109 409.425 391.523 410.341 391.523H411.713C412.629 391.523 413.086 391.109 413.544 390.695C414.001 390.28 414.459 389.866 414.459 389.038Z" fill="white"/>
<path d="M423.153 379.511C423.153 379.925 422.695 380.34 422.238 381.168C421.78 381.582 421.322 381.997 420.407 381.997C419.95 381.997 419.492 381.582 418.577 381.168C418.119 380.754 417.662 380.34 417.662 379.511C417.662 379.097 418.119 378.268 418.577 377.854C419.035 377.44 419.492 377.025 420.407 377.025C420.865 377.025 421.323 377.44 422.238 377.854C422.695 378.268 423.153 378.682 423.153 379.511ZM421.78 379.511C421.78 379.097 421.78 379.097 421.322 378.682C420.865 378.268 420.865 378.268 420.407 378.268C419.95 378.268 419.95 378.268 419.492 378.682C419.035 379.097 419.035 379.097 419.035 379.511C419.035 379.925 419.035 379.925 419.492 380.34C419.95 380.754 419.95 380.754 420.407 380.754C420.865 380.754 420.865 380.754 421.322 380.34C421.78 379.925 421.78 379.925 421.78 379.511Z" fill="white"/>
<path d="M353.14 459.883L347.192 455.326L335.752 473.554L353.14 459.883Z" fill="white"/>
<path d="M359.549 427.569L367.328 428.397L365.955 407.683L359.549 427.569Z" fill="white"/>
<path d="M394.323 450.353H396.611C396.611 450.353 397.069 450.353 397.069 450.768L397.526 451.182V451.596L397.069 452.011H394.781V455.739C394.781 456.153 394.781 456.153 394.781 456.153H394.323H393.866L393.408 455.739V452.011H387.459C387.002 452.011 387.002 452.011 387.002 451.596L386.544 451.182L389.747 436.268C389.747 436.268 389.747 435.854 390.205 435.854H390.662H391.12L391.578 436.268L388.374 450.353H392.95V446.625C392.95 446.625 392.95 446.211 393.408 446.211L393.866 445.796H394.323L394.781 446.211V450.353H394.323Z" fill="white"/>
<path d="M410.339 452.011C410.339 453.254 409.882 454.083 408.966 455.326C408.051 456.154 406.678 456.568 405.306 456.568H401.187C400.73 456.568 400.73 456.568 400.73 456.154V455.74V455.326L401.187 454.911H405.306C406.221 454.911 407.136 454.497 407.594 454.083C408.051 453.668 408.509 452.84 408.509 452.011V449.111C408.509 448.283 408.051 447.454 407.594 447.04C407.136 446.626 406.221 446.211 405.306 446.211H401.187C400.73 446.211 400.272 445.797 400.272 445.383V436.268C400.272 435.854 400.73 435.44 401.187 435.44H409.424C409.424 435.44 409.882 435.44 409.882 435.854L410.339 436.268V436.683L409.882 437.097H402.56V444.554H405.763C407.136 444.554 408.051 444.968 409.424 445.797C410.339 446.626 410.797 447.868 410.797 449.111V452.011H410.339Z" fill="white"/>
<path d="M419.491 439.997C419.491 440.826 419.033 441.24 418.576 441.654C418.118 442.069 417.203 442.483 416.288 442.483C415.373 442.483 414.915 442.069 414.457 441.654C414 441.24 413.542 440.412 413.542 439.583C413.542 438.754 414 438.34 414.457 437.512C414.915 437.097 415.83 436.683 416.745 436.683C417.661 436.683 418.118 437.097 419.033 437.512C419.491 438.754 419.491 439.169 419.491 439.997ZM418.118 439.997C418.118 439.583 418.118 439.169 417.661 439.169C417.203 438.754 417.203 438.754 416.745 438.754C416.288 438.754 415.83 438.754 415.83 439.169C415.373 439.583 415.373 439.583 415.373 439.997C415.373 440.412 415.373 440.826 415.83 440.826C416.288 441.24 416.288 441.24 416.745 441.24C417.203 441.24 417.661 441.24 417.661 440.826C418.118 440.826 418.118 440.412 418.118 439.997Z" fill="white"/>
<path d="M205.339 489.298L209.915 483.912L189.781 473.554L205.339 489.298Z" fill="white"/>
<path d="M315.617 483.912L320.193 489.298L335.751 473.554L315.617 483.912Z" fill="white"/>
<path d="M256.589 477.283C256.589 479.354 256.131 481.426 254.758 483.083C253.386 484.74 251.555 486.397 249.267 487.226H248.81C248.81 487.226 248.352 487.226 248.352 486.811V486.397V485.983C248.352 485.983 248.352 485.568 248.81 485.568C249.267 485.568 249.725 485.154 250.182 485.154L250.64 484.74L251.098 484.326C251.555 483.911 252.47 483.083 252.928 482.254C253.386 481.84 253.843 481.012 253.843 480.183C254.301 479.354 254.301 478.94 254.301 478.112H250.182C248.81 478.112 247.437 477.697 246.522 476.869C245.607 476.04 245.149 474.797 245.149 473.555V470.655C245.149 469.412 245.607 468.583 246.522 467.34C247.437 466.512 248.81 466.098 250.182 466.098H252.013C253.386 466.098 254.301 466.512 255.674 467.34C256.131 467.755 256.589 468.169 256.589 468.583L257.046 469.412V469.826V470.24V477.283H256.589ZM255.216 476.869V471.069C255.216 470.24 254.758 469.412 254.301 468.998C253.843 468.583 252.928 468.169 252.013 468.169H250.182C249.267 468.169 248.352 468.583 247.895 468.998C247.437 469.412 246.979 470.24 246.979 471.069V473.969C246.979 474.797 247.437 475.626 247.895 476.04C248.352 476.454 249.267 476.869 250.182 476.869H255.216Z" fill="white"/>
<path d="M271.689 482.668C271.689 483.911 271.232 484.74 270.317 485.983C269.401 486.811 268.029 487.226 266.656 487.226H264.825C263.453 487.226 262.537 486.811 261.622 485.983C260.707 485.154 260.249 483.911 260.249 482.668V470.654C260.249 469.411 260.707 468.583 261.622 467.34C262.537 466.511 263.91 466.097 265.283 466.097H267.113C268.486 466.097 269.401 466.511 270.774 467.34C271.689 468.169 272.147 469.411 272.147 470.654V482.668H271.689ZM269.859 482.668V470.654C269.859 469.826 269.401 468.997 268.944 468.583C268.486 468.169 267.571 467.754 266.656 467.754H264.825C263.91 467.754 262.995 468.169 262.537 468.583C262.08 468.997 261.622 469.826 261.622 470.654V482.668C261.622 483.497 262.08 484.326 262.537 484.74C262.995 485.154 263.91 485.568 264.825 485.568H266.656C267.571 485.568 268.486 485.154 268.944 484.74C269.401 484.326 269.859 483.497 269.859 482.668Z" fill="white"/>
<path d="M280.841 470.655C280.841 471.483 280.383 471.897 279.926 472.312C279.468 472.726 278.553 473.14 277.638 473.14C276.723 473.14 276.265 472.726 275.807 472.312C275.35 471.897 274.892 471.069 274.892 470.24C274.892 469.412 275.35 468.997 275.807 468.169C276.265 467.755 277.18 467.34 278.095 467.34C279.011 467.34 279.468 467.755 280.383 468.169C280.383 469.412 280.841 469.826 280.841 470.655ZM279.011 470.655C279.011 470.24 279.011 469.826 278.553 469.826C278.095 469.412 278.095 469.412 277.638 469.412C277.18 469.412 276.723 469.412 276.723 469.826C276.265 470.24 276.265 470.24 276.265 470.655C276.265 471.069 276.265 471.483 276.723 471.483C277.18 471.897 277.18 471.897 277.638 471.897C278.095 471.897 278.553 471.897 278.553 471.483C279.011 471.483 279.011 471.069 279.011 470.655Z" fill="white"/>
<path d="M682.607 408.097H676.201C675.743 408.097 675.743 407.682 675.743 407.682C675.743 407.268 676.201 407.268 676.201 407.268H682.607C683.064 407.268 683.064 407.682 683.064 407.682C683.522 408.097 683.064 408.097 682.607 408.097ZM665.676 408.097H602.071C601.613 408.097 601.613 407.682 601.613 407.682C601.613 407.268 602.071 407.268 602.071 407.268H665.676C666.134 407.268 666.134 407.682 666.134 407.682C666.591 408.097 666.134 408.097 665.676 408.097ZM591.546 408.097H581.021C580.564 408.097 580.564 407.682 580.564 407.682C580.564 407.268 581.021 407.268 581.021 407.268H591.546C592.004 407.268 592.004 407.682 592.004 407.682C592.004 408.097 591.546 408.097 591.546 408.097ZM570.039 408.097H505.976C505.519 408.097 505.519 407.682 505.519 407.682C505.519 407.268 505.976 407.268 505.976 407.268H570.039C570.497 407.268 570.497 407.682 570.497 407.682C570.497 408.097 570.497 408.097 570.039 408.097ZM495.452 408.097H484.927C484.469 408.097 484.469 407.682 484.469 407.682C484.469 407.268 484.927 407.268 484.927 407.268H495.452C495.909 407.268 495.909 407.682 495.909 407.682C496.367 408.097 495.909 408.097 495.452 408.097ZM474.402 408.097H410.34C409.882 408.097 409.882 407.682 409.882 407.682C409.882 407.268 410.34 407.268 410.34 407.268H474.402C474.86 407.268 474.86 407.682 474.86 407.682C474.86 408.097 474.86 408.097 474.402 408.097ZM399.815 408.097H389.29C388.833 408.097 388.833 407.682 388.833 407.682C388.833 407.268 389.29 407.268 389.29 407.268H399.815C400.272 407.268 400.272 407.682 400.272 407.682C400.272 408.097 400.272 408.097 399.815 408.097ZM378.766 408.097H314.703C314.245 408.097 314.245 407.682 314.245 407.682C314.245 407.268 314.703 407.268 314.703 407.268H378.766C379.223 407.268 379.223 407.682 379.223 407.682C379.223 408.097 378.766 408.097 378.766 408.097ZM304.178 408.097H293.654C293.196 408.097 293.196 407.682 293.196 407.682C293.196 407.268 293.654 407.268 293.654 407.268H304.178C304.636 407.268 304.636 407.682 304.636 407.682C304.636 408.097 304.636 408.097 304.178 408.097ZM282.671 408.097H218.608C218.151 408.097 218.151 407.682 218.151 407.682C218.151 407.268 218.608 407.268 218.608 407.268H282.671C283.129 407.268 283.129 407.682 283.129 407.682C283.586 408.097 283.129 408.097 282.671 408.097ZM208.541 408.097H198.017C197.559 408.097 197.559 407.682 197.559 407.682C197.559 407.268 198.017 407.268 198.017 407.268H208.541C208.999 407.268 208.999 407.682 208.999 407.682C208.999 408.097 208.541 408.097 208.541 408.097ZM187.035 408.097H123.429C122.972 408.097 122.972 407.682 122.972 407.682C122.972 407.268 123.429 407.268 123.429 407.268H187.035C187.492 407.268 187.492 407.682 187.492 407.682C187.492 408.097 187.492 408.097 187.035 408.097ZM112.447 408.097H101.922C101.465 408.097 101.465 407.682 101.465 407.682C101.465 407.268 101.922 407.268 101.922 407.268H112.447C112.905 407.268 112.905 407.682 112.905 407.682C113.362 408.097 112.905 408.097 112.447 408.097ZM91.3978 408.097H27.3349C26.8773 408.097 26.8773 407.682 26.8773 407.682C26.8773 407.268 27.3349 407.268 27.3349 407.268H90.9402C91.3978 407.268 91.3978 407.682 91.3978 407.682C91.8554 408.097 91.8554 408.097 91.3978 408.097ZM16.8103 408.097H6.28564C5.82805 408.097 5.82803 407.682 5.82803 407.682C5.82803 407.268 6.28564 407.268 6.28564 407.268H16.8103C17.2679 407.268 17.2678 407.682 17.2678 407.682C17.2678 408.097 17.2679 408.097 16.8103 408.097ZM-4.23898 408.097H-68.3019C-68.7595 408.097 -68.7595 407.682 -68.7595 407.682C-68.7595 407.268 -68.3019 407.268 -68.3019 407.268H-4.23898C-3.78139 407.268 -3.78139 407.682 -3.78139 407.682C-3.78139 408.097 -4.23898 408.097 -4.23898 408.097ZM-78.8265 408.097H-89.3511C-89.8087 408.097 -89.8087 407.682 -89.8087 407.682C-89.8087 407.268 -89.3511 407.268 -89.3511 407.268H-78.8265C-78.3689 407.268 -78.3689 407.682 -78.3689 407.682C-78.3689 408.097 -78.3689 408.097 -78.8265 408.097ZM-100.333 408.097H-164.396C-164.854 408.097 -164.854 407.682 -164.854 407.682C-164.854 407.268 -164.396 407.268 -164.396 407.268H-100.333C-99.8758 407.268 -99.8758 407.682 -99.8758 407.682C-99.4182 408.097 -99.8758 408.097 -100.333 408.097Z" fill="white"/>
<path d="M571.869 687.743C571.411 687.743 571.411 687.743 571.869 687.743L533.431 653.357C533.431 653.357 533.431 652.942 533.431 652.528C533.431 652.528 533.889 652.528 534.347 652.528L572.327 686.914C572.327 686.914 572.327 687.328 571.869 687.743ZM526.11 646.728C526.11 646.728 526.11 646.314 526.11 646.728L518.331 639.685C518.331 639.685 518.331 639.271 518.331 638.856C518.331 638.856 518.788 638.856 519.246 638.856L526.567 645.485C527.025 645.899 527.025 646.314 526.11 646.728C526.567 646.314 526.11 646.728 526.11 646.728ZM511.009 633.056L465.25 592.042C465.25 592.042 465.25 591.627 465.25 591.213C465.25 591.213 465.708 591.213 466.165 591.213L511.467 632.228C511.924 632.228 511.924 632.642 511.009 633.056C511.467 633.056 511.467 633.056 511.009 633.056ZM458.386 585.413C458.386 585.413 458.386 584.999 458.386 585.413L450.607 578.37C450.607 578.37 450.607 577.956 450.607 577.541C450.607 577.541 451.065 577.541 451.522 577.541L458.844 584.17C459.301 584.584 459.301 584.999 458.386 585.413C458.844 584.999 458.386 585.413 458.386 585.413ZM443.286 571.741L397.526 530.727C397.526 530.727 397.526 530.312 397.526 529.898C397.526 529.898 397.984 529.898 398.442 529.898L443.743 570.913C444.201 570.913 444.201 571.327 443.286 571.741C443.743 571.741 443.743 571.741 443.286 571.741ZM390.663 524.098L382.883 517.055C382.883 517.055 382.883 516.641 382.883 516.226C382.883 516.226 383.341 516.226 383.799 516.226L391.12 522.855C391.578 523.269 391.578 523.684 390.663 524.098C391.12 524.098 391.12 524.098 390.663 524.098ZM375.562 510.426L329.803 469.412C329.803 469.412 329.803 468.997 329.803 468.583C329.803 468.583 330.26 468.583 330.718 468.583L376.02 509.598C376.477 509.598 376.477 510.012 375.562 510.426C376.02 510.426 376.02 510.426 375.562 510.426ZM322.939 462.783L315.16 455.74C315.16 455.74 315.16 455.326 315.16 454.911C315.16 454.497 315.617 454.911 316.075 454.911L323.396 461.54C323.854 461.954 323.854 462.369 322.939 462.783C323.396 462.783 323.396 462.783 322.939 462.783ZM307.838 449.111L262.079 408.097C262.079 408.097 262.079 407.682 262.079 407.268C262.079 407.268 262.537 407.268 262.994 407.268L308.296 448.283C308.754 448.283 308.754 448.697 307.838 449.111C308.296 449.111 308.296 449.111 307.838 449.111Z" fill="white"/>
<path d="M541.669 313.639C541.669 313.639 541.211 313.639 541.211 313.224C541.211 312.81 541.211 312.81 541.211 312.396L593.834 284.639C594.292 284.639 594.292 284.639 594.749 284.639C594.749 285.053 594.749 285.053 594.749 285.467L541.669 313.639Z" fill="white"/>
<path d="M492.706 236.995C492.706 236.995 492.249 236.995 492.249 236.581C492.249 236.167 492.249 236.167 492.249 235.752L544.872 207.995C545.329 207.995 545.329 207.995 545.787 207.995C545.787 208.409 545.787 208.409 545.787 208.823L492.706 236.995Z" fill="white"/>
<path d="M262.996 408.097C262.996 408.097 262.538 408.097 262.538 407.682C262.538 407.268 262.538 407.268 262.538 406.854L317.907 377.853C318.364 377.853 318.364 377.853 318.822 377.853C318.822 378.268 318.822 378.268 318.822 378.682L262.996 408.097ZM327.516 374.539C327.516 374.539 327.059 374.539 327.059 374.125C327.059 373.71 327.059 373.71 327.059 373.296L336.21 368.325C336.668 368.325 336.668 368.325 337.126 368.325C337.126 368.739 337.126 368.739 337.126 369.153L327.516 374.539ZM345.82 365.01C345.82 365.01 345.362 365.01 345.362 364.596C345.362 364.182 345.362 364.182 345.362 363.767L400.731 334.767C401.188 334.767 401.188 334.767 401.646 334.767C401.646 335.181 401.646 335.181 401.646 335.596L345.82 365.01C345.82 364.596 345.82 365.01 345.82 365.01ZM410.34 331.038C410.34 331.038 409.883 331.038 409.883 330.624C409.883 330.21 409.883 330.21 409.883 329.796L419.035 324.824C419.492 324.824 419.492 324.824 419.95 324.824C419.95 325.238 419.95 325.238 419.95 325.653L410.34 331.038ZM428.644 321.51C428.644 321.51 428.186 321.51 428.186 321.095C428.186 320.681 428.186 320.681 428.186 320.267L483.555 291.266C484.013 291.266 484.013 291.266 484.47 291.266C484.47 291.681 484.47 291.681 484.47 292.095L428.644 321.51C429.102 321.51 428.644 321.51 428.644 321.51ZM493.165 287.952C493.165 287.952 492.707 287.952 492.707 287.538C492.707 287.124 492.707 287.124 492.707 286.709L501.859 281.738C502.316 281.738 502.316 281.738 502.774 281.738C502.774 282.152 502.774 282.152 502.774 282.566L493.165 287.952C493.622 287.538 493.165 287.952 493.165 287.952ZM511.468 278.009C511.468 278.009 511.011 278.009 511.011 277.595C511.011 277.181 511.011 277.181 511.011 276.766L566.379 247.766C566.837 247.766 566.837 247.766 567.294 247.766C567.294 248.18 567.294 248.18 567.294 248.594L511.468 278.009C511.926 278.009 511.926 278.009 511.468 278.009ZM575.989 244.452C575.989 244.452 575.531 244.452 575.531 244.037C575.531 243.623 575.531 243.623 575.531 243.209L584.683 238.237C585.141 238.237 585.141 238.237 585.598 238.237C585.598 238.652 585.598 238.651 585.598 239.066L575.989 244.452C576.446 244.452 576.446 244.452 575.989 244.452ZM594.75 234.923C594.75 234.923 594.292 234.923 594.292 234.509C594.292 234.094 594.292 234.094 594.292 233.68L640.967 209.237C641.424 209.237 641.424 209.237 641.882 209.237C641.882 209.651 641.882 209.651 641.882 210.065L594.75 234.923Z" fill="white"/>
<path d="M158.664 155.793C158.664 155.793 158.207 155.793 158.207 155.379L127.548 107.736C127.548 107.322 127.548 107.322 127.548 106.907C128.006 106.907 128.006 106.907 128.463 106.907L159.122 154.551C159.122 155.379 159.122 155.379 158.664 155.793Z" fill="white"/>
<path d="M73.5523 200.123C73.5523 200.123 73.0947 200.123 73.0947 199.708L42.436 152.065C42.436 151.651 42.436 151.651 42.436 151.236C42.8936 151.236 42.8936 151.236 43.3512 151.236L74.0098 199.294C74.4674 199.708 74.0099 199.708 73.5523 200.123C74.0099 200.123 73.5523 200.123 73.5523 200.123Z" fill="white"/>
<path d="M262.995 408.097C262.995 408.097 262.538 408.097 262.538 407.682L230.506 357.553C230.506 357.139 230.506 357.139 230.506 356.725C230.964 356.725 230.964 356.725 231.421 356.725L263.453 406.854C263.453 407.682 263.453 408.097 262.995 408.097ZM225.473 349.682C225.473 349.682 225.015 349.682 225.015 349.267L219.524 340.982C219.524 340.567 219.524 340.567 219.524 340.153C219.981 340.153 219.981 340.153 220.439 340.153L225.93 348.439C226.388 349.267 226.388 349.682 225.473 349.682C225.93 349.682 225.93 349.682 225.473 349.682ZM214.948 333.11C214.948 333.11 214.49 333.11 214.49 332.696L182.459 282.567C182.459 282.152 182.459 282.152 182.459 281.738C182.916 281.738 182.917 281.738 183.374 281.738L215.406 331.867C215.863 332.696 215.406 332.696 214.948 333.11C215.406 333.11 214.948 333.11 214.948 333.11ZM177.883 274.695C177.883 274.695 177.425 274.695 177.425 274.281L171.934 265.995C171.934 265.581 171.934 265.581 171.934 265.166C172.392 265.166 172.392 265.166 172.849 265.166L178.341 273.452C178.341 274.281 178.341 274.281 177.883 274.695ZM166.901 258.123C166.901 258.123 166.443 258.123 166.443 257.709L134.412 207.58C134.412 207.166 134.412 207.166 134.412 206.751C134.869 206.751 134.869 206.751 135.327 206.751L167.816 257.295C167.816 257.295 167.816 257.709 166.901 258.123C167.358 258.123 167.358 258.123 166.901 258.123ZM129.836 199.708C129.836 199.708 129.378 199.708 129.378 199.294L123.887 191.008C123.887 190.594 123.887 190.594 123.887 190.18C124.345 190.18 124.345 190.18 124.802 190.18L130.293 198.466C130.751 198.88 130.293 199.294 129.836 199.708C130.293 199.708 129.836 199.708 129.836 199.708ZM119.311 182.723C119.311 182.723 118.854 182.723 118.854 182.308L86.8221 132.179C86.8221 131.765 86.8221 131.765 86.8221 131.35C87.2797 131.35 87.2797 131.35 87.7373 131.35L119.769 181.48C119.769 182.308 119.769 182.723 119.311 182.723ZM81.7886 124.722C81.7886 124.722 81.331 124.722 81.331 124.308L75.8399 116.022C75.8399 115.607 75.8399 115.607 75.8399 115.193C76.2975 115.193 76.2975 115.193 76.7551 115.193L82.2462 123.479C82.7038 123.893 82.7038 124.308 81.7886 124.722C82.2462 124.308 82.2462 124.722 81.7886 124.722ZM71.264 107.736C71.264 107.736 70.8064 107.736 70.8064 107.322L43.8084 65.0639C43.8084 64.6496 43.8084 64.6496 43.8084 64.2354C44.266 64.2354 44.266 64.2354 44.7236 64.2354L71.7216 106.907C72.1792 107.322 71.7216 107.736 71.264 107.736C71.7216 107.736 71.264 107.736 71.264 107.736Z" fill="white"/>
<path d="M-45.8795 687.743C-45.8795 687.743 -46.3371 687.743 -45.8795 687.743C-46.3371 687.328 -46.3371 686.914 -46.3371 686.914L-8.35698 652.528C-8.35698 652.528 -7.89938 652.528 -7.44179 652.528C-7.44179 652.528 -7.44179 652.942 -7.44179 653.357L-45.8795 687.743C-45.422 687.743 -45.8795 687.743 -45.8795 687.743ZM-0.577904 646.728C-0.577904 646.728 -0.577904 646.314 -0.577904 646.728C-1.0355 646.314 -1.03551 645.899 -1.03551 645.899L6.28598 639.271C6.28598 639.271 6.74358 639.271 7.20117 639.271C7.20117 639.271 7.20117 639.685 7.20117 640.099L-0.577904 646.728C-0.120312 646.314 -0.120312 646.728 -0.577904 646.728ZM14.5226 633.056C14.065 632.642 14.0651 632.228 14.0651 632.228L59.3667 591.213C59.3667 591.213 59.8243 591.213 60.2819 591.213C60.2819 591.213 60.2819 591.627 60.2819 592.042L14.5226 633.056C14.9802 633.056 14.9802 633.056 14.5226 633.056ZM67.1457 585.413C67.1457 585.413 67.1457 584.999 67.1457 585.413C66.6882 584.999 66.6882 584.584 66.6882 584.584L74.0096 577.956C74.0096 577.956 74.4672 577.956 74.9248 577.956C74.9248 577.956 74.9248 578.37 74.9248 578.784L67.1457 585.413C67.6033 584.999 67.6033 585.413 67.1457 585.413ZM82.2463 571.741C81.7887 571.327 81.7887 570.913 81.7887 570.913L127.09 529.898C127.09 529.898 127.548 529.898 128.006 529.898C128.006 529.898 128.006 530.312 128.006 530.727L82.2463 571.741C82.7039 571.741 82.2463 571.741 82.2463 571.741ZM134.869 524.098C134.412 523.684 134.412 523.269 134.412 523.269L141.733 516.641C141.733 516.641 142.191 516.641 142.648 516.641C142.648 516.641 142.648 517.055 142.648 517.469L134.869 524.098C135.327 524.098 135.327 524.098 134.869 524.098ZM149.97 510.426C149.97 510.426 149.512 510.426 149.97 510.426C149.512 510.012 149.512 509.598 149.512 509.598L194.814 468.583C194.814 468.583 195.272 468.583 195.729 468.583C195.729 468.583 195.729 468.997 195.729 469.412L149.97 510.426C150.428 510.426 149.97 510.426 149.97 510.426ZM202.593 462.783C202.135 462.369 202.135 461.954 202.135 461.954L209.457 455.326C209.457 455.326 209.915 455.326 210.372 455.326C210.372 455.326 210.372 455.74 210.372 456.154L202.593 462.783C203.051 462.783 203.051 462.783 202.593 462.783ZM217.694 449.111C217.694 449.111 217.236 449.111 217.694 449.111C217.236 448.697 217.236 448.283 217.236 448.283L262.538 407.268C262.538 407.268 262.995 407.268 263.453 407.268C263.453 407.268 263.453 407.682 263.453 408.097L217.694 449.111C218.151 449.111 217.694 449.111 217.694 449.111Z" fill="white"/>
<path d="M262.996 817.416C262.538 817.416 262.538 817.002 262.538 817.002V781.373C262.538 780.958 262.996 780.958 262.996 780.958C263.454 780.958 263.454 781.373 263.454 781.373V817.002L262.996 817.416ZM262.996 771.844C262.538 771.844 262.538 771.43 262.538 771.43V761.901C262.538 761.487 262.996 761.487 262.996 761.487C263.454 761.487 263.454 761.901 263.454 761.901V771.43C263.454 771.844 262.996 771.844 262.996 771.844ZM262.996 752.787C262.538 752.787 262.538 752.372 262.538 752.372V694.372C262.538 693.957 262.996 693.957 262.996 693.957C263.454 693.957 263.454 694.372 263.454 694.372V752.372L262.996 752.787ZM262.996 685.257C262.538 685.257 262.538 684.843 262.538 684.843V675.314C262.538 674.9 262.996 674.9 262.996 674.9C263.454 674.9 263.454 675.314 263.454 675.314V684.843C263.454 685.257 262.996 685.257 262.996 685.257ZM262.996 666.2C262.538 666.2 262.538 665.786 262.538 665.786V608.199C262.538 607.785 262.996 607.785 262.996 607.785C263.454 607.785 263.454 608.199 263.454 608.199V665.786L262.996 666.2ZM262.996 598.67C262.538 598.67 262.538 598.256 262.538 598.256V588.728C262.538 588.313 262.996 588.313 262.996 588.313C263.454 588.313 263.454 588.728 263.454 588.728V598.256L262.996 598.67ZM262.996 579.613C262.538 579.613 262.538 579.199 262.538 579.199V521.198C262.538 520.784 262.996 520.784 262.996 520.784C263.454 520.784 263.454 521.198 263.454 521.198V579.199L262.996 579.613ZM262.996 512.084C262.538 512.084 262.538 511.669 262.538 511.669V501.726C262.538 501.312 262.996 501.312 262.996 501.312C263.454 501.312 263.454 501.726 263.454 501.726V511.255C263.454 511.669 262.996 512.084 262.996 512.084ZM262.996 492.612C262.538 492.612 262.538 492.198 262.538 492.198V434.197C262.538 433.783 262.996 433.783 262.996 433.783C263.454 433.783 263.454 434.197 263.454 434.197V492.198C263.454 492.612 262.996 492.612 262.996 492.612ZM262.996 425.083C262.538 425.083 262.538 424.668 262.538 424.668V415.14C262.538 414.725 262.996 414.725 262.996 414.725C263.454 414.725 263.454 415.14 263.454 415.14V424.668C263.454 425.083 262.996 425.083 262.996 425.083ZM262.996 406.025C262.538 406.025 262.538 405.611 262.538 405.611V347.61C262.538 347.196 262.996 347.196 262.996 347.196C263.454 347.196 263.454 347.61 263.454 347.61V405.197C263.454 405.611 262.996 406.025 262.996 406.025ZM262.996 338.496C262.538 338.496 262.538 338.082 262.538 338.082V328.553C262.538 328.139 262.996 328.139 262.996 328.139C263.454 328.139 263.454 328.553 263.454 328.553V338.082C263.454 338.496 262.996 338.496 262.996 338.496ZM262.996 319.439C262.538 319.439 262.538 319.024 262.538 319.024V261.023C262.538 260.609 262.996 260.609 262.996 260.609C263.454 260.609 263.454 261.023 263.454 261.023V319.024L262.996 319.439ZM262.996 251.909C262.538 251.909 262.538 251.495 262.538 251.495V241.966C262.538 241.552 262.996 241.552 262.996 241.552C263.454 241.552 263.454 241.966 263.454 241.966V251.495L262.996 251.909ZM262.996 232.437C262.538 232.437 262.538 232.023 262.538 232.023V174.437C262.538 174.022 262.996 174.022 262.996 174.022C263.454 174.022 263.454 174.437 263.454 174.437V232.023C263.454 232.437 262.996 232.437 262.996 232.437ZM262.996 165.322C262.538 165.322 262.538 164.908 262.538 164.908V155.379C262.538 154.965 262.996 154.965 262.996 154.965C263.454 154.965 263.454 155.379 263.454 155.379V164.908L262.996 165.322ZM262.996 145.851C262.538 145.851 262.538 145.436 262.538 145.436V87.4356C262.538 87.0213 262.996 87.0213 262.996 87.0213C263.454 87.0213 263.454 87.4356 263.454 87.4356V145.436C263.454 145.851 262.996 145.851 262.996 145.851ZM262.996 78.7355C262.538 78.7355 262.538 78.3212 262.538 78.3212V68.7926C262.538 68.3783 262.996 68.3783 262.996 68.3783C263.454 68.3783 263.454 68.7926 263.454 68.7926V78.3212L262.996 78.7355ZM262.996 59.2639C262.538 59.2639 262.538 58.8496 262.538 58.8496V0.848861C262.538 0.43457 262.996 0.43457 262.996 0.43457C263.454 0.43457 263.454 0.848861 263.454 0.848861V58.8496L262.996 59.2639Z" fill="white"/>
</svg>
