<svg width="110" height="112" viewBox="0 0 110 112" fill="none" xmlns="http://www.w3.org/2000/svg">
<path d="M87.058 78.571C87.3802 78.8452 87.7023 79.1195 88.0245 79.3938C89.4205 80.7651 89.85 82.4655 89.6352 84.3853C89.5279 85.0436 89.2057 85.6469 88.9372 86.2503C88.2929 87.5668 87.2191 88.3895 85.8768 88.8832C84.9103 89.2123 83.9439 89.2672 82.9237 89.0478C81.5277 88.7735 80.4538 87.9507 79.5411 86.9085C79.3263 86.6891 79.1115 86.6891 78.8431 86.8537C77.5008 87.7313 76.2121 88.6638 74.8698 89.5415C74.0108 90.09 73.098 90.6385 72.4537 91.4613C71.702 92.4486 71.2724 93.4908 71.2724 94.7524C71.2724 98.3178 71.2724 101.828 71.2724 105.394C71.2724 107.039 70.7355 108.411 69.608 109.563C68.9637 110.221 68.1583 110.769 67.1918 110.934C66.6549 111.044 66.118 111.098 65.6347 111.098C58.9769 111.098 52.319 111.098 45.7149 111.098C43.7819 111.098 42.2786 110.111 41.2584 108.466C40.6678 107.478 40.3993 106.381 40.3993 105.229C40.3993 101.938 40.3993 98.6469 40.3993 95.3009C40.3993 93.1617 39.4329 91.571 37.7147 90.5288C36.3724 89.706 34.9764 88.9929 33.6341 88.1701C32.3992 87.4022 31.2179 86.4697 30.0904 85.5921C28.3185 84.2208 26.7615 82.6849 25.3118 80.9845C24.399 79.9423 23.5936 78.7904 22.7345 77.6933C21.607 76.2672 20.6942 74.6764 19.8351 73.0857C19.1908 71.879 18.6539 70.6722 18.117 69.4106C17.6874 68.3684 17.2579 67.2714 16.8821 66.1743C16.6673 65.4612 16.4525 64.7482 16.2914 63.9802C16.023 62.9929 15.8082 62.0055 15.5934 61.0182C15.4861 60.5794 15.486 60.1954 15.3787 59.7566C14.8954 56.6849 14.8954 53.6131 15.0565 50.4865C15.1102 49.0604 15.3787 47.6891 15.5934 46.3178C15.7545 45.2207 16.023 44.1237 16.2914 43.0815C16.6136 41.8747 17.0968 40.668 17.4727 39.4612C18.0633 37.5962 18.9224 35.7861 19.8351 34.0857C20.6942 32.6047 21.5533 31.0688 22.5734 29.6975C24.0231 27.6131 25.6339 25.7481 27.4595 23.9928C29.0165 22.5118 30.681 21.1405 32.4528 19.8789C34.4395 18.5076 36.5872 17.3008 38.7349 16.2586C39.8624 15.7101 41.0436 15.3261 42.2786 14.9422C43.1913 14.6131 44.2115 14.4485 45.1242 14.1742C45.6075 14.0645 46.037 13.8451 46.5203 13.7354C46.5739 13.7354 46.6813 13.6806 46.735 13.6806C47.3793 13.6257 47.9699 13.5709 48.6143 13.4612C49.6344 13.2966 50.6546 13.0772 51.6747 12.9675C52.2653 12.9126 52.856 12.9126 53.4466 12.9126C54.8963 12.9126 56.3997 12.8578 57.8493 12.9675C59.3527 13.0772 60.9098 13.4063 62.4132 13.6257C63.3797 13.7903 64.2924 13.9548 65.2052 14.2291C66.3864 14.5582 67.514 14.8873 68.6415 15.381C70.306 16.0941 72.0241 16.8072 73.6349 17.6848C75.2457 18.5624 76.8028 19.6046 78.3061 20.7017C79.4874 21.5245 80.6149 22.457 81.6351 23.4443C83.1922 24.8705 84.6419 26.3515 85.8768 28.0519C87.0043 29.5329 88.0782 31.0139 89.0446 32.6595C90.0111 34.3599 90.8702 36.1701 91.6756 37.9802C92.1588 39.0224 92.5346 40.1194 92.9105 41.2165C93.2863 42.4781 93.6085 43.7397 93.8233 45.0013C94.1454 46.592 94.3602 48.1827 94.5749 49.7735C94.9508 52.2967 94.7897 54.8199 94.6823 57.3431C94.6286 58.6595 94.4139 60.0309 94.1454 61.3473C93.8232 62.938 93.34 64.4739 92.9642 66.0646C92.4809 68.0393 91.7292 69.8494 90.8702 71.6596C90.1722 73.1954 89.2594 74.6764 88.4003 76.1575C88.1319 77.0351 87.6486 77.7482 87.058 78.571ZM63.2723 83.1786C62.3595 83.2883 61.4467 83.398 60.5877 83.5077C59.7286 83.6174 58.9232 83.6722 58.0641 83.7271C57.0977 83.8368 56.1849 83.9465 55.2184 84.0562C55.0036 84.1111 54.7352 84.1659 54.5204 84.1659C54.1983 84.2208 53.8761 84.3305 53.7687 83.8917C53.5003 82.9592 53.2855 82.0815 53.017 81.149C52.6949 79.9423 52.4264 78.7355 52.1043 77.5288C52.0506 77.3642 51.9432 77.1448 51.7821 77.09C51.46 76.9802 51.0841 76.9254 50.7083 76.8705C50.2787 76.7608 49.9029 76.706 49.4733 76.5414C48.829 76.322 48.5069 76.4317 48.131 76.8705C47.8626 77.2545 47.5941 77.5836 47.3256 77.9676C46.3592 79.2292 45.3927 80.5457 44.3726 81.8073C44.1578 82.0267 43.9967 82.1364 43.6746 81.917C42.7081 81.3136 41.6879 80.7651 40.7215 80.2165C39.2181 79.3389 37.661 78.4613 36.1576 77.6385C35.9965 77.5288 35.8892 77.4739 35.9965 77.1997C36.3187 76.3769 36.6409 75.5541 36.9093 74.7313C37.3925 73.4697 37.8758 72.2081 38.3053 70.9465C38.359 70.7819 38.3053 70.5077 38.1979 70.398C37.6073 69.6849 36.963 69.0266 36.3724 68.3136C36.1039 67.9845 35.8355 67.9845 35.4596 68.0942C35.4059 68.149 35.2985 68.149 35.1912 68.2039C34.4395 68.4233 33.6341 68.5878 32.8824 68.8072C31.7548 69.1364 30.6273 69.5203 29.4998 69.8494C29.1776 69.9591 28.9091 69.9043 28.8018 69.4655C28.587 68.8621 28.3185 68.3136 28.0501 67.7102C27.4595 66.4486 26.9225 65.2418 26.3319 63.9802C25.9024 63.1026 25.5265 62.1701 25.097 61.2925C25.1507 61.1828 25.2581 61.1279 25.3118 61.0731C27.191 59.8663 29.0165 58.6047 30.8958 57.3979C31.1642 57.2334 31.2179 57.1237 31.1642 56.8494C31.1105 56.3009 31.0568 55.8072 31.0032 55.2587C30.9495 54.8199 30.8958 54.3262 30.8421 53.8874C30.8421 53.8325 30.7347 53.7228 30.681 53.668C30.2515 53.5034 29.8756 53.3389 29.4461 53.1743C28.9628 52.9549 28.4259 52.7903 27.9427 52.5709C27.2984 52.3515 26.6541 52.1321 26.0635 51.9127C25.4191 51.6933 24.7748 51.419 24.0768 51.1996C24.0768 51.0899 24.0768 50.8705 24.0768 50.7059C24.1842 49.9929 24.3453 49.2798 24.5064 48.5667C24.5601 48.2376 24.6138 47.9633 24.6674 47.6342C24.8822 46.6469 25.1507 45.6047 25.3654 44.6173C25.5802 43.6848 25.7413 42.6975 25.9024 41.7102C26.7078 41.765 27.4595 41.8747 28.2648 41.8747C29.8219 41.9296 31.379 42.0393 32.9361 42.0393C33.0972 42.0393 33.3656 41.9296 33.473 41.765C33.9562 40.9422 34.3858 40.1194 34.8153 39.2966C34.869 39.1869 34.869 39.0224 34.8153 38.9127C34.6005 38.5287 34.2784 38.1447 34.0636 37.7608C33.0972 36.2798 32.1307 34.7988 31.1105 33.3177C30.8421 32.9886 30.9495 32.8241 31.1642 32.5498C33.0972 30.7397 35.0301 28.9844 36.963 27.1743C37.2315 26.9549 37.4462 26.6806 37.7147 26.4612C38.0905 26.7354 38.4127 26.9549 38.7349 27.2291C40.2382 28.4359 41.6879 29.6426 43.1913 30.8494C43.3524 30.9591 43.6209 31.0139 43.7819 30.9042C44.5873 30.5751 45.3927 30.1911 46.1444 29.862C46.4129 29.7523 46.6276 29.5329 46.6276 29.149C46.6813 27.0097 46.735 24.8156 46.8424 22.6764C46.8424 22.5118 46.8961 22.4021 46.8961 22.2924C47.5941 22.1827 48.2384 22.1278 48.8827 22.0181C49.7418 21.9084 50.6546 21.8536 51.5136 21.7987C52.0506 21.7439 52.5875 21.689 53.1244 21.6342C54.0372 21.5245 54.8963 21.4148 55.809 21.3051C56.1849 21.2502 56.346 21.4148 56.3997 21.7987C56.507 22.3473 56.6681 22.8958 56.7755 23.4443C56.9903 24.2122 57.2587 24.9802 57.4198 25.7481C57.6346 26.516 57.7957 27.2291 58.0104 27.9971C58.0641 28.2165 58.2252 28.4359 58.601 28.4359C59.3527 28.5456 60.1044 28.765 60.9098 28.9295C61.2857 28.9844 61.6615 29.0941 61.93 28.6553C62.4669 27.9422 63.0038 27.2291 63.5944 26.516C64.3461 25.5287 65.1515 24.5413 65.9032 23.554C66.0643 23.3346 66.1717 23.3346 66.3864 23.4443C67.6751 24.2122 68.9637 24.9253 70.2523 25.6384C71.5946 26.4063 72.9906 27.1743 74.3329 27.9422C73.9034 28.9844 73.5275 30.0814 73.098 31.1236C72.6684 32.2207 72.2389 33.2629 71.8631 34.3599C71.8094 34.5245 71.7557 34.8536 71.8631 34.9633C72.5074 35.7312 73.2591 36.4992 73.9571 37.2123C74.0645 37.322 74.2792 37.3768 74.4403 37.322C75.1383 37.1026 75.8363 36.8283 76.588 36.6637C78.0377 36.2798 79.4874 35.8958 80.8834 35.5118C81.1518 35.4021 81.2592 35.5667 81.3129 35.7312C81.5277 36.2249 81.6888 36.6637 81.9035 37.1574C82.9774 39.4612 84.0512 41.765 85.0714 44.0688C84.8566 44.2882 84.6955 44.3979 84.5345 44.5076C82.7626 45.6595 81.0445 46.7566 79.2726 47.9085C79.1652 48.0182 79.0042 48.2376 79.0042 48.3473C79.0578 49.2249 79.1115 50.0477 79.2189 50.9254C79.2726 51.1996 79.3263 51.5287 79.4874 51.6384C80.0243 51.9127 80.5612 52.0224 81.0982 52.2418C81.6888 52.4612 82.2257 52.7355 82.8163 52.9549C83.2995 53.1743 83.7828 53.3937 84.3197 53.5583C84.9103 53.7777 85.5546 53.8874 86.1989 54.0519C85.5546 57.2882 84.964 60.4148 84.3734 63.5414C84.0512 63.4866 83.8365 63.4866 83.6217 63.4317C81.9035 63.3769 80.1317 63.322 78.4135 63.2123C78.0914 63.2123 77.7692 63.1026 77.4471 63.1026C77.2323 63.1026 76.9638 63.2123 76.9102 63.3769C76.4269 64.1448 76.0511 64.9127 75.6215 65.6806C75.5141 65.9001 75.4604 66.1195 75.7289 66.3389C77.0175 67.6005 78.3062 68.9718 79.5948 70.2883C81.1518 71.879 82.7089 73.5246 84.3197 75.1153C84.5345 75.3347 84.7492 75.4992 85.0177 75.1153C85.7157 73.9634 86.4674 72.8115 87.1654 71.6047C87.6486 70.6722 88.0782 69.7397 88.454 68.7524C88.9909 67.3811 89.5279 66.0646 90.0111 64.6385C90.3869 63.4317 90.6554 62.1701 90.9239 60.9633C91.1923 59.6469 91.3534 58.3304 91.4608 56.9591C91.5682 55.9169 91.6219 54.8747 91.6219 53.8325C91.6219 52.8452 91.5682 51.8578 91.4608 50.8705C91.3534 49.7186 91.246 48.5667 91.0849 47.4148C90.9776 46.7566 90.8702 46.0983 90.7091 45.4401C90.4943 44.6173 90.2796 43.7945 90.0111 42.9718C89.6889 41.9296 89.4205 40.8874 89.0446 39.9C88.5077 38.6384 87.9171 37.3768 87.3265 36.1701C86.4674 34.3599 85.3935 32.6595 84.2123 31.0688C82.87 29.2587 81.3666 27.5582 79.7022 26.0224C78.3062 24.7059 76.8565 23.554 75.2994 22.457C73.4738 21.1954 71.5409 20.0983 69.4469 19.2207C68.4267 18.7818 67.3529 18.343 66.2791 17.9591C65.4737 17.6848 64.6683 17.4105 63.8629 17.246C63.1112 17.0814 62.3595 16.9169 61.6078 16.8072C60.534 16.6426 59.4064 16.4232 58.3326 16.3135C57.044 16.2038 55.7553 16.2586 54.4667 16.2586C53.554 16.2586 52.6412 16.2586 51.7284 16.3135C50.6009 16.4232 49.4733 16.6426 48.2921 16.8072C47.6478 16.9169 47.0035 17.0266 46.4129 17.1911C45.339 17.5202 44.2652 17.8494 43.1913 18.2333C42.0101 18.6721 40.8826 19.0561 39.755 19.6046C38.4127 20.2629 37.1241 21.0856 35.8355 21.8536C33.7415 23.1152 31.8085 24.6511 30.0904 26.4612C28.7481 27.8325 27.4595 29.3135 26.2782 30.7945C25.3118 32.0013 24.5064 33.3726 23.7547 34.689C23.1104 35.7861 22.5198 36.938 22.0365 38.0899C21.607 39.0772 21.2848 40.0646 20.909 41.0519C20.6942 41.7102 20.4257 42.4232 20.2647 43.0815C20.1036 43.5751 19.9962 44.0688 19.8888 44.6173C19.7277 45.3853 19.5667 46.1532 19.4593 46.9211C19.2982 48.073 19.0297 49.2249 18.9761 50.3768C18.8687 53.3389 18.815 56.3009 19.2982 59.2629C19.4056 59.9212 19.513 60.6342 19.6741 61.2925C19.8888 62.1152 20.1036 62.938 20.3721 63.7608C20.6942 64.7482 20.9627 65.7904 21.3385 66.7777C21.8754 68.0942 22.4124 69.3558 23.1104 70.5625C23.8621 71.9887 24.6674 73.4148 25.5802 74.7313C26.493 76.1026 27.5668 77.3642 28.6407 78.571C30.1978 80.3262 31.9159 81.8073 33.7952 83.2334C35.4059 84.4402 37.0704 85.4824 38.7885 86.4149C39.8087 86.9634 40.7752 87.5119 41.5806 88.3347C41.6879 88.4444 41.849 88.5541 42.0101 88.5541C43.1376 88.609 44.2652 88.6638 45.339 88.7187C45.7686 88.7187 46.1444 88.609 46.5739 88.609C48.0773 88.609 49.5807 88.609 51.0841 88.609C51.46 88.609 51.8358 88.7187 52.2117 88.7187C52.7486 88.7187 53.2318 88.609 53.7687 88.609C59.0843 88.609 64.3998 88.609 69.7154 88.609C69.9301 88.609 70.1986 88.5541 70.306 88.3895C71.3261 87.1828 72.6684 86.5246 73.9034 85.6469C74.8161 84.9887 75.7289 84.4402 76.588 83.7819C76.6417 83.7271 76.6954 83.4528 76.6417 83.398C76.4269 83.1237 76.1585 82.8495 75.89 82.5752C73.1517 79.7777 70.3597 76.9802 67.6214 74.1828C67.3529 73.9085 67.0844 73.8537 66.7086 74.0182C65.9569 74.4022 65.1515 74.6764 64.3461 75.0604C64.0777 75.225 63.6481 75.225 63.6481 75.7186C63.5944 77.2545 63.5407 78.7904 63.4871 80.2714C63.2723 81.533 63.2723 82.3558 63.2723 83.1786ZM35.3522 33.6468C35.7281 34.1954 36.1039 34.7439 36.4261 35.2376C37.2315 36.4443 38.0369 37.5962 38.7885 38.803C38.8422 38.9127 38.8422 39.0772 38.7885 39.1869C38.5201 39.7355 38.1979 40.2291 37.8758 40.7777C36.963 42.4232 36.0502 44.0688 35.1375 45.7144C35.0838 45.8241 34.9227 45.9886 34.8153 45.9886C34.3858 45.9886 33.9562 45.9886 33.5267 45.9886C31.9696 45.8789 30.4125 45.7692 28.9091 45.6595C28.6407 45.6595 28.587 45.7692 28.5333 46.0435C28.4259 46.7566 28.2111 47.4697 28.0501 48.1827C27.9964 48.457 27.8353 48.7861 28.2111 48.9507C29.0702 49.2798 29.983 49.554 30.8421 49.8832C31.8085 50.2123 32.775 50.5962 33.7415 50.9802C34.0099 51.0899 34.1173 51.2545 34.1173 51.5287C34.1173 51.9127 34.1173 52.3515 34.171 52.7355C34.2247 53.3389 34.3858 53.9971 34.4395 54.6005C34.5469 55.4233 34.5469 56.3009 34.6542 57.1237C34.7079 57.6174 34.7616 58.1659 34.9227 58.6595C35.0301 58.9338 34.9227 59.0984 34.7616 59.2629C34.1173 59.7017 33.473 60.1406 32.8287 60.5794C31.8085 61.2376 30.8421 61.8958 29.8219 62.5541C29.7145 62.6089 29.6608 62.8283 29.7145 62.938C29.983 63.5963 30.3052 64.1996 30.5736 64.8579C30.8958 65.5709 31.0032 65.6258 31.7012 65.4064C32.6139 65.1321 33.473 64.8579 34.3858 64.6385C35.1375 64.419 35.9429 64.3093 36.6945 64.0351C37.0704 63.9254 37.1778 63.9802 37.4462 64.1996C38.8959 65.8452 40.3993 67.4359 41.849 69.0266C42.3322 69.5203 42.6544 69.9591 42.2249 70.6722C41.849 71.3853 41.6342 72.1532 41.3658 72.8663C41.0436 73.744 40.7215 74.6216 40.453 75.5541C40.3993 75.6638 40.5067 75.8832 40.6141 75.9381C41.3121 76.3769 42.0101 76.7608 42.7081 77.1997C43.0302 77.4191 43.2987 77.3094 43.5135 77.0351C44.5336 75.7186 45.5538 74.4022 46.5203 73.0857C46.8424 72.7018 47.0572 72.2081 47.7015 72.4824C48.3995 72.7018 49.1512 72.7566 49.8492 72.9212C51.2452 73.1954 52.6949 73.4697 54.0909 73.8537C54.413 73.9085 54.8963 73.8537 55.0037 74.457C55.1647 75.225 55.3795 76.0478 55.5943 76.8157C55.8627 77.8579 56.1849 78.8452 56.4533 79.8874C56.507 80.2165 56.6681 80.3262 56.9903 80.2714C57.8493 80.1617 58.7621 80.052 59.6212 79.9423C59.7286 79.9423 59.836 79.7229 59.836 79.6132C59.8897 77.7482 59.9434 75.8284 59.997 73.9634C59.997 73.6343 60.1044 73.4697 60.3729 73.36C61.5541 72.8115 62.7354 72.2629 63.9166 71.7693C64.2387 71.6596 64.2387 71.5499 64.024 71.3305C63.1649 70.4528 62.2521 69.5203 61.393 68.6427C61.2857 68.533 61.1246 68.533 60.9635 68.533C60.4803 68.6975 59.9434 68.8072 59.4601 69.0266C58.3326 69.5203 57.1513 69.5203 55.9701 69.6849C54.6815 69.8494 53.3929 69.63 52.1043 69.4106C50.9767 69.2461 49.9566 68.8621 48.9364 68.4781C47.4867 67.9296 46.1981 67.1617 45.0169 66.2292C43.245 64.8579 41.7953 63.1574 40.7215 61.1279C40.0235 59.8663 39.4866 58.5498 39.1644 57.1237C38.8959 56.0266 38.6812 54.8747 38.6812 53.7228C38.6812 52.7903 38.7885 51.8578 38.8422 50.9254C38.8959 49.4992 39.3255 48.1827 39.8087 46.8663C40.2382 45.7144 40.8289 44.6722 41.4732 43.63C42.4933 42.0941 43.7282 40.7777 45.1242 39.6258C46.5739 38.4739 48.1847 37.5962 49.9566 37.0477C51.1378 36.6637 52.319 36.3895 53.554 36.3346C55.0037 36.2249 56.4533 36.3895 57.903 36.4992C58.2252 36.4992 58.4937 36.6089 58.8158 36.6637C59.7823 36.9928 60.695 37.3768 61.6078 37.7059C63.0038 38.2545 64.2387 39.0224 65.3663 40.0097C66.3864 40.9422 67.2992 41.9844 68.1583 43.0815C68.6952 43.7397 69.1248 44.5076 69.5006 45.2756C70.0912 46.4275 70.5744 47.6342 70.7892 48.9507C70.9503 50.1026 71.2188 51.2545 71.2724 52.4064C71.3798 53.9422 71.2188 55.4781 70.7355 56.9591C70.4134 57.9465 70.0375 58.9338 69.7154 59.976C69.608 60.2503 69.3395 60.4697 69.7154 60.7988C70.5744 61.6216 71.4335 62.4992 72.2389 63.3769C72.5074 63.6511 72.6685 63.6511 72.8832 63.2671C73.4201 62.225 74.0108 61.2376 74.5477 60.1954C74.7625 59.8114 74.9772 59.6469 75.4068 59.7017C76.8565 59.8114 78.3061 59.8663 79.8095 59.9211C80.3465 59.9211 80.8297 59.9211 81.3666 59.9211C81.5814 58.879 81.7962 57.8916 81.9572 56.8494C81.2592 56.63 80.6686 56.4106 80.078 56.1912C78.9505 55.7524 77.8229 55.3135 76.6954 54.9296C75.89 54.6553 75.8363 54.5456 75.7826 53.7228C75.7289 53.0646 75.6752 52.4612 75.5678 51.803C75.4605 50.8705 75.3531 49.938 75.2457 49.0055C75.1383 48.3473 75.0309 47.6342 74.9235 46.976C74.8698 46.7566 74.8698 46.5372 75.1383 46.4275C75.3531 46.3178 75.5678 46.1532 75.7826 45.9886C77.0712 45.1659 78.3598 44.3431 79.6485 43.5203C80.2391 43.1363 80.2928 42.9718 80.0243 42.3135C79.9706 42.2587 79.9706 42.149 79.9169 42.0941C79.5948 41.4359 79.2726 40.7777 78.9505 40.1194C76.8565 40.7228 74.8161 41.2713 72.7221 41.8747C72.2926 41.381 71.8094 40.8325 71.3798 40.284C70.306 39.0772 69.1784 37.8705 68.0509 36.6637C67.6214 36.2249 67.2992 35.8409 67.6751 35.1279C68.212 34.0857 68.5341 32.9886 68.91 31.8916C69.1784 31.2333 69.3932 30.5751 69.6617 29.862C68.8026 29.3684 67.9972 28.9295 67.1918 28.4907C66.9234 28.3262 66.7623 28.381 66.6012 28.6004C65.5274 30.0266 64.4535 31.3979 63.326 32.7692C62.9501 33.2629 62.7354 33.3726 62.1984 33.208C61.9837 33.1532 61.7152 33.0983 61.5004 33.0435C61.0709 32.9886 60.695 32.9338 60.2655 32.8241C59.1917 32.6047 58.1715 32.3304 57.0977 32.111C56.4533 32.0013 55.8627 31.8916 55.2184 31.727C55.111 31.727 55.0036 31.5625 54.95 31.3979C54.8426 31.1236 54.7889 30.9042 54.7352 30.63C54.5204 29.8072 54.3593 28.9844 54.1446 28.2165C53.9298 27.4485 53.6613 26.6806 53.5003 25.9127C53.4466 25.6384 53.2855 25.4738 52.9633 25.5287C52.2116 25.5835 51.4599 25.6932 50.7619 25.7481C50.1713 25.803 50.1176 25.8578 50.1176 26.4612C50.0639 28.2713 50.0103 30.0814 49.9566 31.9464C49.9566 32.111 49.8492 32.3304 49.6881 32.4401C49.3659 32.6595 49.0438 32.7692 48.7216 32.9338C47.0572 33.7017 45.339 34.5245 43.6746 35.2376C43.2987 35.4021 42.9229 35.7861 42.4396 35.4021C41.849 34.9085 41.2047 34.4148 40.6141 33.9211C39.7013 33.208 38.8422 32.4949 37.9295 31.7819C37.8221 31.727 37.6073 31.6722 37.5536 31.727C36.8019 32.3304 36.1039 32.9886 35.3522 33.6468ZM55.111 39.8452C47.8089 39.7903 42.2786 45.7692 42.2249 52.6806C42.1712 60.0857 47.9163 65.9001 55.111 65.8452C62.0374 65.7904 67.5677 60.1406 67.7287 53.0646C67.8361 45.7144 61.9837 39.9 55.111 39.8452ZM67.8361 98.2081C67.8361 96.2883 67.8361 94.533 67.8361 92.7229C59.8897 92.7229 51.8895 92.7229 43.8356 92.7229C43.8893 93.2166 44.0504 93.6554 44.0504 94.0942C44.1041 95.1912 44.1041 96.2883 44.1041 97.3305C44.1041 98.2081 44.1041 98.2081 44.9632 98.2081C50.5472 98.2081 56.1312 98.2081 61.7152 98.2081C63.487 98.2081 65.2589 98.2081 67.0307 98.2081C67.1918 98.2081 67.4603 98.2081 67.8361 98.2081ZM44.0504 102.048C44.0504 103.255 44.0504 104.461 44.0504 105.668C44.0504 106.601 44.7484 107.643 45.9833 107.643C48.3995 107.588 50.8693 107.643 53.2855 107.643C57.5272 107.643 61.7689 107.643 65.9569 107.643C66.9771 107.643 67.6751 106.875 67.7287 106.162C67.8361 104.845 67.7287 103.474 67.7287 102.103C59.836 102.048 51.9432 102.048 44.0504 102.048ZM64.5609 66.4486C64.6683 66.5583 64.722 66.7229 64.883 66.8326C66.3864 68.3684 67.8361 69.8494 69.3395 71.3853C70.7355 72.8115 72.1852 74.2925 73.5812 75.7186C75.7289 77.9127 77.9303 80.1617 80.078 82.3558C80.9908 83.2883 81.9035 84.2208 82.8163 85.1533C83.4606 85.7566 84.5345 85.7018 85.1251 85.3178C86.36 84.4402 86.4137 82.9592 85.3935 81.917C83.0311 79.5035 80.6686 77.09 78.3061 74.6216C74.8161 71.0562 71.3798 67.5456 67.8898 63.9802C67.6214 63.706 67.4603 63.6511 67.1381 63.9802C66.3327 64.803 65.4737 65.6258 64.5609 66.4486Z" fill="black"/>
<path d="M6.68042 23.6636C7.37842 22.786 7.96904 22.018 8.55965 21.2501C8.82812 20.921 8.98919 20.8661 9.31135 21.1952C10.6537 22.2923 11.996 23.3893 13.3383 24.4864C14.4121 25.364 15.4323 26.2417 16.5061 27.0644C16.882 27.3936 17.2578 27.6678 17.6337 27.9969C17.7947 28.1615 17.8484 28.2712 17.6874 28.4906C17.0431 29.3134 16.3987 30.1362 15.7007 31.0138C12.694 28.6003 9.68719 26.132 6.68042 23.6636Z" fill="black"/>
<path d="M92.0515 28.2165C92.8568 27.5583 93.6085 26.9549 94.3602 26.2967C95.6489 25.2545 96.9375 24.2123 98.2261 23.1153C99.0852 22.4022 99.9442 21.744 100.75 21.0309C100.964 20.8663 101.125 20.8663 101.287 21.0857C101.931 21.9085 102.575 22.7313 103.273 23.6089C102.575 24.1575 101.877 24.7608 101.179 25.3094C99.6758 26.571 98.1187 27.7777 96.6153 29.0393C95.971 29.5878 95.273 30.1364 94.6287 30.6849C94.4676 30.8495 94.3065 30.9043 94.0918 30.6849C93.4475 29.917 92.8031 29.0942 92.0515 28.2165Z" fill="black"/>
<path d="M98.6557 48.2925C102.253 48.2925 105.797 48.2925 109.394 48.2925C109.394 49.4444 109.394 50.5414 109.394 51.6385C109.394 51.7482 109.233 51.9127 109.126 51.9127C108.374 51.9127 107.622 51.8579 106.871 51.8579C106.656 51.8579 106.441 51.9127 106.28 51.9127C103.864 51.9127 101.394 51.9127 98.9778 51.9127C98.9242 51.9127 98.8168 51.9127 98.7094 51.9127C98.6557 50.706 98.6557 49.5541 98.6557 48.2925Z" fill="black"/>
<path d="M11.1907 48.2925C11.2444 48.841 11.2981 49.3895 11.2981 49.9381C11.2981 50.322 11.1907 50.7608 11.1907 51.1448C11.1907 51.3094 11.1907 51.4739 11.2444 51.5836C11.3518 51.8579 11.1907 51.9127 10.9759 51.9127C10.0095 51.8579 9.043 51.803 8.07654 51.803C7.70069 51.803 7.32484 51.8579 6.949 51.9127C6.78792 51.9127 6.62684 51.9676 6.46576 51.9676C5.71407 51.9676 4.90868 51.9676 4.15699 51.9676C3.29791 51.9676 2.43883 51.9676 1.57976 51.9676C0.5596 51.9676 0.559601 51.9676 0.559601 50.8705C0.559601 50.0478 0.559601 49.1701 0.559601 48.3473C4.1033 48.2925 7.647 48.2925 11.1907 48.2925Z" fill="black"/>
<path d="M106.548 74.512C106.495 74.6766 106.495 74.7863 106.441 74.8411C105.958 75.6091 105.528 76.4319 105.045 77.1998C104.884 77.4192 104.723 77.5289 104.454 77.3643C102.468 76.1576 100.481 74.9508 98.4946 73.7441C97.7429 73.3053 96.9912 72.8116 96.1858 72.3728C95.8637 72.2082 95.8637 71.9888 96.0247 71.7145C96.508 70.9466 96.9375 70.1787 97.3671 69.4107C97.4744 69.1913 97.6355 69.0268 97.9577 69.2462C99.4611 70.1787 100.964 71.1112 102.468 72.0437C103.703 72.8116 104.938 73.5247 106.119 74.2378C106.334 74.2926 106.441 74.4023 106.548 74.512Z" fill="black"/>
<path d="M5.17708 77.4738C5.06969 77.3641 4.96231 77.3093 4.90862 77.1996C4.42539 76.3768 3.94215 75.554 3.45892 74.7312C3.35154 74.5118 3.29785 74.3472 3.56631 74.1827C4.64016 73.5245 5.76769 72.9211 6.84154 72.2629C8.13016 71.4401 9.41878 70.6173 10.7074 69.8493C11.1369 69.5751 11.6202 69.3557 12.0497 69.1363C12.1571 69.0814 12.3719 69.1363 12.3719 69.246C12.9088 70.1236 13.392 70.9464 13.9289 71.824C13.9826 71.8789 13.8752 72.1532 13.7142 72.208C12.8551 72.7565 11.9423 73.3051 11.0832 73.8536C9.2577 75.0055 7.43216 76.1025 5.60662 77.2544C5.55293 77.3093 5.39185 77.3641 5.17708 77.4738Z" fill="black"/>
<path d="M34.5468 13.4061C33.5803 14.3934 32.7749 15.2162 31.8622 16.0939C31.2179 15.4356 30.6273 14.7774 29.9829 14.1192C28.3185 12.4188 26.654 10.7183 24.9896 9.07276C24.7748 8.85335 24.6674 8.68879 24.9359 8.41453C25.5802 7.7563 26.2245 7.09808 26.9225 6.43985C27.0299 6.33014 27.352 6.27529 27.4057 6.38499C28.5333 7.53689 29.6071 8.68879 30.7346 9.84069C31.5937 10.7732 32.5065 11.6508 33.4193 12.5285C33.7414 12.8027 34.1173 13.077 34.5468 13.4061Z" fill="black"/>
<path d="M78.0378 16.0394C77.2324 15.2166 76.427 14.3938 75.568 13.5162C76.0512 13.0225 76.4807 12.5288 76.964 12.0352C78.4673 10.4993 79.917 9.01829 81.4204 7.48243C81.7963 7.09846 82.1721 6.76934 82.548 6.38538C82.6554 6.33053 82.8701 6.33053 82.9775 6.38538C83.6755 7.04361 84.3198 7.75669 84.9641 8.41492C85.1789 8.63433 85.1789 8.79888 84.9641 8.96344C83.0312 10.8833 81.152 12.858 79.219 14.7778C78.8432 15.2166 78.4673 15.6006 78.0378 16.0394Z" fill="black"/>
<path d="M53.2319 0.0771484C54.4132 0.0771484 55.5407 0.0771484 56.7219 0.0771484C56.7219 3.09403 56.7219 6.11091 56.7219 9.18265C55.5944 9.18265 54.4132 9.18265 53.2319 9.18265C53.2319 6.16577 53.2319 3.14888 53.2319 0.0771484Z" fill="black"/>
</svg>
