<svg width="105" height="103" viewBox="0 0 105 103" fill="none" xmlns="http://www.w3.org/2000/svg">
<path d="M104.111 88.0795V88.0816C104.01 94.9104 100.838 99.6384 95.7824 101.58L95.7813 101.58C90.4917 103.564 85.54 102.671 81.554 98.7472C64.8317 82.3833 48.2092 65.9703 31.5868 49.5084C28.8612 46.8252 26.1763 44.094 23.4963 41.3678C21.2713 39.1045 19.0497 36.8446 16.8111 34.6186L16.8085 34.616L16.8086 34.616C16.0154 33.7864 15.1262 33.009 14.1912 32.4275L104.111 88.0795ZM104.111 88.0795C104.111 85.5179 102.383 82.2399 99.4241 79.4744C90.889 71.1705 82.3539 62.7682 73.8684 54.4147L73.8682 54.4146C66.7052 47.363 59.5422 40.2992 52.3791 33.2353C45.2161 26.1714 38.053 19.1075 30.8899 12.0558C30.2756 11.4512 29.4598 10.9495 28.6441 10.6481C20.5576 7.45403 12.421 4.30901 4.28426 1.26222C3.8078 1.07993 3.28534 1.05631 2.76373 1.06869C2.5858 1.07291 2.40937 1.08116 2.23396 1.08936C1.88501 1.10569 1.54005 1.12182 1.19523 1.10566L1.03673 1.09823L1.0452 1.25668C1.06055 1.54385 1.05205 1.8329 1.04334 2.12919C1.03797 2.31175 1.03252 2.49706 1.03252 2.68636C1.03252 3.17001 1.0697 3.65989 1.25535 4.10435C3.95061 10.8359 6.64664 17.5694 9.49255 24.2048L9.49299 24.2058M104.111 88.0795L9.49299 24.2058M9.49299 24.2058C9.80203 24.9117 10.0528 25.6521 10.305 26.4015M9.49299 24.2058L10.305 26.4015M18.7062 27.1967L18.7061 27.1966C18.1882 26.6624 17.6355 26.2416 17.0665 26.0799C16.5092 25.9216 15.9215 26.0072 15.3072 26.5188C14.9875 26.787 14.8346 27.041 14.7802 27.2785C14.7257 27.5164 14.7655 27.7571 14.8675 28.0068C14.9703 28.2581 15.1323 28.5097 15.3116 28.7657C15.3599 28.8346 15.4097 28.9042 15.4597 28.9741C15.5917 29.1586 15.7253 29.3453 15.8361 29.527M18.7062 27.1967L15.7143 29.6028M18.7062 27.1967C19.6288 28.1468 20.5477 29.1013 21.4674 30.0567C23.7802 32.4591 26.0981 34.8667 28.492 37.2234C31.1895 39.9116 33.9095 42.5784 36.6215 45.2373C37.9748 46.5641 39.3262 47.889 40.6718 49.2136C53.0501 61.4976 65.4784 73.7325 77.9064 85.9671C78.231 86.3323 78.5564 86.6983 78.9622 87.1436C78.2331 87.907 77.6163 88.5631 76.7571 89.5391C75.8468 88.6047 74.9622 87.6758 74.0886 86.7583C72.6595 85.2576 71.2597 83.7877 69.825 82.3752C65.6323 78.2478 61.445 74.1148 57.2577 69.9817C48.8827 61.7151 40.5073 53.4483 32.0879 45.2254C30.8117 43.969 29.4735 42.7872 28.132 41.614C27.9986 41.4973 27.8653 41.3808 27.7319 41.2643C26.5228 40.2079 25.3157 39.1533 24.1491 38.049L24.1475 38.0475C23.7887 37.7178 23.4986 37.2791 23.1974 36.8158L23.1688 36.7718C22.8803 36.3279 22.5796 35.8651 22.2043 35.4956C21.1132 34.4214 19.9799 33.4017 18.8469 32.3822C18.1654 31.769 17.484 31.1559 16.8119 30.5311M18.7062 27.1967L16.7126 30.6348M15.8361 29.527C15.8364 29.5273 15.8366 29.5277 15.8369 29.5281L15.7143 29.6028M15.8361 29.527C15.8359 29.5266 15.8357 29.5263 15.8355 29.5259L15.7143 29.6028M15.8361 29.527C15.9514 29.7083 16.1034 29.8704 16.2748 30.0331C16.3431 30.098 16.4183 30.1662 16.4951 30.2359C16.6018 30.3328 16.7119 30.4328 16.8119 30.5311M15.7143 29.6028C15.8922 29.883 16.1461 30.1132 16.4037 30.3469C16.5077 30.4411 16.6122 30.5359 16.7126 30.6348M16.8119 30.5311C16.8114 30.5306 16.8109 30.5301 16.8104 30.5297L16.7126 30.6348M16.8119 30.5311C16.8124 30.5315 16.8128 30.532 16.8133 30.5325L16.7126 30.6348M10.305 26.4015L10.3228 26.4543M10.305 26.4015L10.3228 26.4543M10.3228 26.4543C10.5685 27.1845 10.8168 27.9226 11.121 28.6335M10.3228 26.4543L11.121 28.6335M11.121 28.6335C11.7454 30.0924 12.6096 31.4481 14.1909 32.4274L11.121 28.6335ZM24.3003 28.3207L24.2982 28.3186C23.7956 27.8486 23.2685 27.4162 22.7455 26.9871L22.7438 26.9857C22.2192 26.5554 21.6989 26.1285 21.2039 25.6656C19.8101 24.3405 19.7202 22.0726 20.9599 20.7581C21.6341 20.0469 22.445 19.6981 23.2862 19.7156C24.1287 19.7331 25.0191 20.1187 25.8474 20.9098C27.6189 22.6538 29.378 24.3978 31.1373 26.142L31.1374 26.1421C32.8969 27.8865 34.6567 29.6312 36.4289 31.3759C44.5134 39.3345 52.5853 47.2931 60.6573 55.2518L60.6635 55.2578C68.7375 63.2185 76.8116 71.1792 84.8981 79.14C85.1044 79.3431 85.3064 79.5761 85.5329 79.8373C85.6607 79.9847 85.7963 80.1411 85.9449 80.3063C84.4638 81.6701 83.0235 82.9918 81.3594 84.4453C80.8197 83.9293 80.2675 83.405 79.7091 82.8749C78.4337 81.6641 77.1263 80.4229 75.8649 79.1811C67.7855 71.2274 59.7283 63.252 51.6636 55.2692C47.6208 51.2674 43.5761 47.2637 39.5257 43.26L39.5255 43.2598C34.4839 38.2967 29.3921 33.2841 24.3003 28.3207ZM89.7399 74.7663L89.7401 74.7665C89.9731 74.9959 90.1747 75.2245 90.4227 75.5057C90.4643 75.5528 90.5071 75.6014 90.5516 75.6517C90.0761 76.2453 89.7195 76.6867 89.4203 76.9906C89.1028 77.313 88.8743 77.454 88.6651 77.4761C88.4601 77.4977 88.2331 77.4088 87.9067 77.1573C87.5815 76.9067 87.1863 76.518 86.6469 75.987C81.9053 71.3192 77.1692 66.6514 72.4331 61.9835C62.9595 52.6464 53.4859 43.3092 43.9679 33.9721L43.9676 33.9718C39.8386 29.9441 35.653 25.9439 31.4752 21.9512C30.0969 20.6339 28.7194 19.3174 27.345 18.0011C27.2655 17.9227 27.1855 17.8461 27.1061 17.7699C26.9683 17.6379 26.8321 17.5073 26.702 17.3719C26.4985 17.1603 26.323 16.9498 26.2041 16.7329C26.0862 16.5176 26.0263 16.3004 26.0473 16.0717C26.0682 15.8426 26.1717 15.5862 26.4081 15.2953L26.4093 15.2938C26.9082 14.6622 27.4498 14.4561 27.9804 14.5062C28.5222 14.5572 29.0802 14.878 29.5928 15.3586C30.2689 15.9952 30.9467 16.6317 31.6253 17.2688C34.4048 19.8787 37.196 22.4996 39.923 25.1841C42.5926 27.8367 45.2374 30.5386 47.883 33.2413L47.8831 33.2415C50.5285 35.944 53.1748 38.6474 55.8461 41.3017L55.8461 41.3017C62.6144 48.0237 69.4011 54.7106 76.1839 61.3938C80.7065 65.8499 85.2273 70.3043 89.7399 74.7663ZM96.756 81.8168C96.593 81.9256 96.4285 82.0286 96.2653 82.1298C96.2367 82.1475 96.2081 82.1652 96.1796 82.1828C95.9991 82.2945 95.8205 82.405 95.6513 82.5178C95.2603 82.7786 94.9033 83.062 94.6623 83.431L94.6608 83.4334C94.4422 83.7831 94.3654 84.2174 94.3276 84.6518C94.3113 84.8385 94.302 85.0299 94.2929 85.2177C94.2913 85.2495 94.2898 85.2812 94.2882 85.3128C94.2773 85.5323 94.265 85.746 94.2407 85.9494L94.2191 86.1299L94.3997 86.109C94.6756 86.0771 94.9567 86.0719 95.2439 86.0665C95.3921 86.0638 95.5419 86.061 95.6934 86.0546C96.1266 86.036 96.5631 85.9865 96.9404 85.8013C97.3382 85.6182 97.677 85.3209 97.9915 85.0051C98.1119 84.8842 98.2271 84.7625 98.3411 84.6421C98.4954 84.479 98.6474 84.3185 98.8063 84.1662C101.552 87.9294 101.083 93.0268 97.8266 96.2327C94.3726 99.633 89.4794 100.101 85.1757 97.2007C85.9641 96.4442 86.7539 95.7044 87.5395 94.9686C88.8948 93.6993 90.2376 92.4416 91.5394 91.1296C91.805 90.8679 92.0518 90.4823 92.2136 90.0872C92.373 89.6979 92.4613 89.2718 92.377 88.9332C92.3096 88.5787 92.1602 88.296 91.9456 88.0952C91.73 87.8934 91.4566 87.7821 91.1562 87.7583C90.559 87.711 89.8589 88.0076 89.2409 88.616C87.8092 90.0254 86.377 91.4791 84.9456 92.9319C84.2638 93.6239 83.5823 94.3156 82.9011 95.0022L79.7642 91.9141C82.0847 89.7026 84.3985 87.4737 86.7314 85.2264C88.9896 83.0509 91.2657 80.8584 93.5829 78.6479C94.3502 79.4033 95.3809 80.4197 96.756 81.8168ZM16.0578 22.5418L16.0578 22.5418L16.055 22.5431C15.1379 22.9534 14.1862 23.2947 13.0157 23.7145C12.835 23.7793 12.6491 23.846 12.4573 23.9151C12.3537 23.6208 12.2496 23.3253 12.1451 23.0286C11.3566 20.7913 10.5463 18.4922 9.81107 16.193L9.81109 16.193L9.8103 16.1907C9.79862 16.1562 9.79737 16.0969 9.82204 16.0078C9.84597 15.9215 9.89017 15.822 9.94911 15.7176C10.0671 15.5085 10.2335 15.298 10.3741 15.1596L10.3741 15.1597L10.377 15.1566C12.0223 13.4388 13.7175 11.77 15.4625 10.1503L15.4626 10.1503L15.4656 10.1474C15.6176 9.99765 15.8803 9.85957 16.1657 9.77762C16.4525 9.69529 16.7311 9.67849 16.9163 9.73879C18.662 10.3475 20.3532 11.034 22.0533 11.7242C22.6482 11.9657 23.2442 12.2076 23.844 12.4468C23.808 12.7355 23.7802 13.0261 23.753 13.3099C23.7307 13.5429 23.7088 13.7713 23.6832 13.9904C23.6213 14.5206 23.5356 15.0238 23.3664 15.4999C23.2768 15.7417 23.0815 16.0057 22.8305 16.2352C22.5802 16.464 22.2859 16.6481 22.0102 16.7388C19.4212 17.5387 17.7421 19.1929 16.7788 21.6387L16.7782 21.6402C16.7078 21.8248 16.6021 22.0212 16.4742 22.1872C16.345 22.3548 16.2011 22.4814 16.0578 22.5418ZM6.46989 7.88411C6.18066 7.17763 5.88794 6.46261 5.59524 5.74262C5.62728 5.70507 5.6644 5.66825 5.70683 5.62648L5.71067 5.6227C5.74795 5.586 5.7895 5.54511 5.82953 5.49886C7.97496 6.29675 10.1236 7.0959 12.493 7.98198C10.9269 9.34363 9.5653 10.5452 8.08476 11.8652C7.57664 10.5875 7.02982 9.25182 6.46989 7.88411Z" fill="black" stroke="black" stroke-width="0.287035"/>
<path d="M91.6337 28.2342C89.2633 30.7574 87.1235 33.0079 84.8476 35.3917C84.3734 34.9109 83.908 34.4295 83.4454 33.951C82.1503 32.6115 80.8782 31.2957 79.5032 30.0846L79.5033 30.0845L79.4984 30.0806C79.1836 29.827 78.7275 29.7664 78.2787 29.7479C78.1104 29.741 77.9359 29.7401 77.7645 29.7391C77.7041 29.7388 77.644 29.7384 77.5847 29.7379C77.3546 29.7356 77.1332 29.7294 76.929 29.7058L76.7485 29.6849L76.77 29.8654C76.8027 30.1383 76.8133 30.4174 76.8242 30.7031C76.8298 30.8492 76.8355 30.997 76.8441 31.1466C76.8693 31.5797 76.92 32.0171 77.0791 32.4085L77.0789 32.4086L77.0821 32.4154C77.244 32.7608 77.5106 33.0464 77.7951 33.3078C77.9115 33.4148 78.0334 33.5199 78.1538 33.6237C78.1807 33.6469 78.2076 33.67 78.2343 33.6931C78.3814 33.8203 78.525 33.9467 78.6588 34.0784C79.3065 34.716 79.942 35.3662 80.5285 35.9682C80.5823 36.0233 80.6357 36.0781 80.6886 36.1324C81.1702 36.6269 81.6158 37.0844 82.0025 37.468C80.8653 38.659 79.7625 39.8163 78.6597 40.9734L78.6556 40.9778L78.6463 40.9876C77.5468 42.1413 76.4473 43.2951 75.3136 44.4824C74.9049 44.0664 74.4981 43.6437 74.0896 43.2193C72.8939 41.977 71.6837 40.7197 70.3689 39.5691C70.0441 39.2763 69.5063 39.0477 68.9943 38.9343C68.736 38.8771 68.4771 38.8475 68.2469 38.8557C68.0208 38.8638 67.8052 38.9088 67.6477 39.0167C67.3316 39.2245 67.1301 39.4575 67.0316 39.713C66.9325 39.97 66.9439 40.2329 67.023 40.4869C67.1782 40.985 67.6019 41.4737 68.0265 41.8917C68.3762 42.2359 68.7286 42.5797 69.0815 42.9241C70.1417 43.9586 71.2065 44.9976 72.2159 46.0649L72.2159 46.065L72.2195 46.0686C72.5701 46.4137 72.7585 46.9259 72.9501 47.4467C72.9614 47.4776 72.9728 47.5085 72.9842 47.5394L72.9837 47.5395L72.9889 47.5505C73.102 47.7918 73.1928 48.1216 73.2829 48.4488C73.3069 48.5361 73.3309 48.6232 73.3552 48.7084C73.4114 48.9049 73.4701 49.0927 73.536 49.2358C73.569 49.3073 73.6069 49.3748 73.652 49.4283C73.6964 49.481 73.7595 49.5338 73.8444 49.5477L73.8444 49.5478L73.8489 49.5484C74.2447 49.6003 74.713 49.5611 75.146 49.4466C75.5771 49.3325 75.9902 49.1394 76.2642 48.8698C85.2985 40.0252 94.2828 31.1807 103.267 22.3363L103.269 22.3339C103.831 21.7816 104.147 21.2322 104.161 20.6626C104.175 20.091 103.883 19.539 103.319 18.9844C97.3792 13.1367 91.4394 7.28924 85.5993 1.49097L85.5989 1.49054C85.0352 0.93556 84.4756 0.649544 83.8975 0.663093C83.3214 0.676597 82.7643 0.987009 82.2029 1.53968L82.2026 1.53996C73.2694 10.3833 64.3362 19.1775 55.4028 27.9719L55.3975 27.977C54.9785 28.3896 54.5299 28.8403 54.3295 29.3336C54.2271 29.5855 54.187 29.8533 54.249 30.1349C54.3107 30.4153 54.4708 30.6961 54.7463 30.9802L54.7465 30.9804C55.0462 31.2883 55.34 31.4689 55.632 31.5417C55.926 31.6149 56.204 31.5752 56.4642 31.4674C56.9674 31.2588 57.4222 30.7847 57.8367 30.3527L57.8465 30.3424C57.8465 30.3424 57.8466 30.3424 57.8466 30.3423C65.4833 22.8244 73.1203 15.3063 80.7073 7.78819C81.4389 7.06791 82.0806 6.22104 82.6168 5.51337C82.814 5.25312 82.9969 5.0117 83.1648 4.80232C86.463 7.99427 89.6085 11.0208 92.6689 13.9655C95.0428 16.2497 97.3656 18.4846 99.6688 20.7093C98.6108 21.7531 97.5658 22.8171 96.4335 23.9701C95.7117 24.7051 94.9544 25.4763 94.1356 26.3013C93.7273 25.8752 93.3242 25.4516 92.923 25.0299C91.6958 23.7402 90.4856 22.4683 89.1944 21.1971C88.771 20.7559 88.2878 20.3136 87.7575 20.1418C87.4874 20.0543 87.2031 20.0361 86.9101 20.124C86.6184 20.2114 86.3293 20.4004 86.0421 20.7088L86.0419 20.709C85.7658 21.0067 85.6149 21.2987 85.568 21.5866C85.5209 21.8752 85.5807 22.1446 85.6996 22.3921C85.9228 22.8568 86.3677 23.2668 86.7496 23.6187C86.7655 23.6334 86.7812 23.6479 86.7969 23.6623C88.4551 25.2947 90.1605 26.8798 91.6337 28.2342Z" fill="black" stroke="black" stroke-width="0.287035"/>
<path d="M35.9726 83.3181C34.7634 84.5323 33.6115 85.6902 32.4596 86.848L32.454 86.8537C31.3028 88.0108 30.1515 89.1681 28.943 90.3816C28.4333 89.8628 27.934 89.3341 27.4356 88.8064C26.2735 87.576 25.1164 86.3509 23.8454 85.2685C23.5399 84.9961 22.9963 84.8063 22.4737 84.731C22.2087 84.6928 21.9405 84.6827 21.6999 84.7089C21.4619 84.7347 21.2375 84.7975 21.0718 84.9161C20.7793 85.1255 20.5951 85.3597 20.5067 85.6127C20.4182 85.8661 20.4309 86.1238 20.5065 86.3708C20.6554 86.8572 21.0538 87.321 21.4574 87.6935L21.4586 87.6946L21.4629 87.6984C23.221 89.285 24.9792 90.8716 26.7841 92.5042C26.139 93.1121 25.5241 93.6903 24.934 94.2452C23.4642 95.6273 22.1488 96.8643 20.9068 98.0519C15.684 92.9583 10.411 87.7677 4.8476 82.2908C4.9635 82.1965 5.08298 82.1001 5.20494 82.0017C5.68001 81.6185 6.19254 81.205 6.6762 80.7655L6.67628 80.7656L6.68037 80.7616C9.37799 78.1059 12.0699 75.4504 14.76 72.7967C20.1342 67.4952 25.5008 62.2013 30.8897 56.9289L30.89 56.9286C31.333 56.4925 31.7967 56.0275 31.9847 55.5186C32.0811 55.2576 32.1069 54.9817 32.0221 54.6922C31.9381 54.4054 31.7492 54.1176 31.438 53.8237C31.1371 53.5278 30.8419 53.363 30.5503 53.3056C30.2574 53.248 29.9835 53.3017 29.7318 53.4155C29.2971 53.6121 28.9071 54.0009 28.5708 54.3362C28.5271 54.3797 28.4843 54.4224 28.4424 54.4636C26.6561 56.2221 24.8699 57.9826 23.0828 59.7437C15.9309 66.7922 8.7668 73.8527 1.53868 80.8504C0.903536 81.4509 0.582032 82.0156 0.595942 82.5976C0.609781 83.1766 0.955061 83.7265 1.53724 84.2996C7.42746 90.0982 13.3174 95.8965 19.1574 101.695L19.1579 101.695C19.7193 102.248 20.2764 102.558 20.8525 102.572C21.4306 102.585 21.9902 102.299 22.5539 101.744L22.5542 101.744C26.6471 97.6903 30.7524 93.6489 34.8579 89.6072L34.8584 89.6068C38.9635 85.5655 43.0689 81.524 47.1618 77.4703C47.3008 77.3403 47.441 77.2101 47.5818 77.0793C48.4471 76.2758 49.3318 75.4542 50.0678 74.5594C50.5451 73.9851 50.671 73.2853 50.5133 72.7387C50.4343 72.4648 50.2826 72.2254 50.0633 72.0646C49.8423 71.9025 49.5615 71.827 49.2403 71.8683L49.2386 71.8685C48.2323 72.01 47.546 71.7407 46.9674 71.3062C46.6746 71.0863 46.4083 70.8231 46.1402 70.5431C46.0744 70.4744 46.0083 70.4044 45.9416 70.3339C45.7394 70.1198 45.5323 69.9007 45.3137 69.6948L45.3136 69.6947C44.9281 69.3325 44.5625 68.9534 44.1952 68.5724C44.0419 68.4134 43.8884 68.2541 43.7329 68.0956C43.2078 67.5603 42.6654 67.0382 42.0576 66.5893C41.768 66.3623 41.3764 66.3143 40.9934 66.3082C40.8334 66.3056 40.6678 66.3104 40.5055 66.3152C40.4706 66.3162 40.4359 66.3172 40.4014 66.3182C40.2044 66.3235 40.0136 66.3264 39.8337 66.3146L39.6808 66.3046V66.4578C39.6808 66.7145 39.6539 66.9709 39.6264 67.2338C39.6126 67.3666 39.5985 67.5011 39.5876 67.6381C39.5561 68.0348 39.5536 68.441 39.6888 68.8149C39.8009 69.1446 40.0477 69.4223 40.314 69.6657C40.4484 69.7886 40.5918 69.9062 40.7305 70.0189C40.7434 70.0294 40.7561 70.0398 40.7689 70.0501C40.895 70.1525 41.016 70.2509 41.1268 70.349L41.1288 70.3508C42.5863 71.5943 44.0437 72.7912 45.5 73.9859C44.1478 75.3164 42.9231 76.5101 41.7395 77.6634L41.6189 77.7809C40.4786 78.8919 39.3738 79.9684 38.2271 81.0965C37.7303 80.6039 37.236 80.0882 36.7388 79.5695C35.9344 78.7303 35.1225 77.8832 34.2805 77.1135L34.2806 77.1135L34.2762 77.1098C34.0398 76.9103 33.8066 76.6329 33.5567 76.3357C33.5419 76.318 33.5269 76.3003 33.512 76.2825C33.2497 75.9708 32.9695 75.6433 32.6632 75.3996C32.3557 75.1548 32.0067 74.9821 31.607 75.0031C31.2074 75.024 30.7888 75.2369 30.3378 75.6936L30.3363 75.6951C29.9093 76.1409 29.7195 76.5552 29.7177 76.9501C29.7159 77.3436 29.9012 77.686 30.1555 77.9876C30.4091 78.2886 30.7444 78.564 31.066 78.8224C31.0913 78.8428 31.1166 78.863 31.1417 78.8832C31.4404 79.1229 31.7212 79.3481 31.9315 79.5769C32.846 80.5811 33.8629 81.4674 34.8501 82.3278C35.2312 82.66 35.6079 82.9883 35.9726 83.3181Z" fill="black" stroke="black" stroke-width="0.287035"/>
</svg>
