<svg width="103" height="110" viewBox="0 0 103 110" fill="none" xmlns="http://www.w3.org/2000/svg">
<path d="M79.2529 42.1335C78.5042 41.3206 78.1049 40.4061 78.604 39.39C78.8037 39.0344 79.1032 38.6787 79.4526 38.4247C82.5475 36.1384 85.6423 33.8014 88.7371 31.5151C89.7355 30.753 90.7837 30.8546 91.6822 31.7691C94.0782 34.2078 96.4743 36.5957 98.8703 39.0852C99.8187 40.0505 99.8686 41.1174 99.0699 42.1335C96.7738 45.1819 94.4277 48.2302 92.0816 51.2786C91.1831 52.4471 89.9352 52.5995 88.837 51.7358C88.4876 51.431 88.2879 51.6342 88.0882 51.8374C86.0416 53.9205 83.995 56.0543 81.8985 58.1374C79.9019 60.1696 77.9052 62.2018 75.6589 64.4373C75.9085 64.5897 76.208 64.6405 76.3578 64.8437C83.446 71.4485 90.5342 78.0532 97.6223 84.6072C99.5691 86.3854 101.017 88.4684 101.666 91.0595C103.213 96.8514 99.9185 102.44 94.3278 103.456C90.4842 104.117 87.1398 102.948 84.4443 100.205C81 96.699 77.8054 92.9901 74.5108 89.3321C71.2663 85.7249 67.9718 82.1177 64.7272 78.5613C64.6273 78.4597 64.4776 78.3581 64.2779 78.1548C64.1781 78.6629 64.1282 79.0185 64.0283 79.425C63.5292 81.254 62.4809 82.7782 61.0832 83.9467C59.7355 85.1152 58.8869 86.5886 58.1381 88.1636C57.2896 89.9418 56.441 91.72 55.5924 93.4474C55.3428 93.9555 55.0433 94.4127 54.644 94.8192C51.2496 98.1723 47.8054 101.475 44.411 104.777C43.3128 105.844 42.0649 106.86 41.0167 107.978C39.3195 109.756 37.3727 109.959 35.2263 109.197C31.2829 107.825 28.188 105.234 25.6423 101.932C24.2945 100.154 23.1465 98.274 22.5475 96.1401C21.9984 94.1587 22.2979 92.4313 23.7455 90.8563C28.0383 86.2838 32.2812 81.6604 36.4742 77.0371C37.1731 76.275 38.0716 75.8178 38.9701 75.3605C40.8669 74.3952 42.8636 73.5315 44.7604 72.5154C45.5092 72.109 46.1581 71.5501 46.7571 70.9404C48.1548 69.4671 49.6024 68.0445 51.5491 67.4348C52.3977 67.1808 53.2962 67.13 54.1947 66.9776C53.995 66.6727 53.8453 66.3679 53.2962 66.5203C48.8536 67.7397 44.5608 67.1808 40.5175 64.9961C37.2729 63.2687 34.6273 60.9317 33.03 57.4769C31.2829 53.8189 30.8836 49.9576 31.3328 45.944C31.3827 45.5883 31.3827 45.2327 31.4826 44.877C31.9318 43.2513 33.8287 42.794 35.0267 43.9625C36.8237 45.7916 38.6207 47.6206 40.4177 49.4496C40.6173 49.6528 40.8669 49.856 41.0167 50.0592C41.8153 51.2278 42.8636 51.5326 44.2113 51.2786C45.9584 51.0245 47.7554 50.9229 49.5524 50.7705C50.1015 50.7197 50.3511 50.5165 50.3511 49.9576C50.5009 47.7222 50.6506 45.4867 50.8503 43.2513C50.9002 42.794 50.7505 42.54 50.4509 42.2351C48.2047 39.9489 45.9584 37.6626 43.7122 35.3764C42.8636 34.5127 42.6639 33.649 43.1132 32.7345C43.4626 32.074 44.0117 31.6167 44.7105 31.5151C48.9534 30.9055 53.0965 31.3119 56.9901 33.2933C60.5341 35.1223 62.8802 38.0691 64.4776 41.6763C66.2247 45.6391 66.5242 49.7544 65.426 53.9205C65.2762 54.4285 65.6257 55.089 66.1248 55.2414C66.2746 55.2922 66.5242 55.089 66.6739 54.9874C68.9701 52.7011 71.2163 50.3641 73.5125 48.027C75.3095 46.198 77.1065 44.369 78.9035 42.54C79.0034 42.4384 79.1032 42.3368 79.2529 42.1335ZM35.6257 50.6181C35.5757 50.6689 35.5258 50.7197 35.426 50.7197C35.426 50.8213 35.3761 50.8721 35.426 50.9737C35.7255 53.1584 36.3245 55.2414 37.6223 57.0196C40.8669 61.4905 47.2064 64.1324 53.1465 61.9478C54.3445 61.4905 55.2929 61.7446 56.1415 62.7099C63.629 70.9912 71.1165 79.2726 78.604 87.5539C81.4493 90.6531 84.2446 93.803 87.1398 96.9022C88.7372 98.5788 90.6839 99.4425 93.03 99.2393C95.9751 99.036 98.1215 96.2925 97.7721 93.3458C97.5225 91.2627 96.624 89.5862 95.1764 88.1636C93.9285 86.9443 92.6307 85.7757 91.3328 84.6072C81.4493 75.4113 71.5658 66.2155 61.6822 57.0704C60.634 56.1051 60.4343 55.3938 60.8836 54.1745C61.9817 51.2786 62.1315 48.3318 61.2829 45.3851C60.035 41.1174 57.5891 37.9167 53.2962 36.4433C52.2979 36.0876 51.2995 35.9352 50.2513 35.6812C50.2014 35.732 50.2014 35.8336 50.1515 35.8844C50.3012 36.0876 50.5009 36.2909 50.6506 36.4433C51.8486 37.6626 53.0466 38.9328 54.2945 40.1521C54.8935 40.7618 55.193 41.4731 55.0932 42.3368C54.9934 43.5561 54.8935 44.7246 54.8436 45.944C54.644 48.281 54.4942 50.6181 54.2446 52.9552C54.1448 54.0729 53.396 54.7842 52.2979 54.8858C48.8037 55.1906 45.3594 55.4955 41.8653 55.8003C41.0666 55.8511 40.3678 55.6479 39.8187 55.0382C39.02 54.2253 38.2213 53.4124 37.4227 52.5995C36.8736 51.9391 36.2746 51.2786 35.6257 50.6181ZM60.4343 73.8364C59.6856 73.0235 58.9867 72.2614 58.2879 71.4485C57.4393 70.534 57.4393 70.534 56.4909 71.3977C55.6423 72.2106 54.594 72.3122 53.6456 71.6009C53.2962 71.3469 52.9468 71.2961 52.5475 71.4993C51.3994 72.0582 50.5508 72.9218 49.7022 73.8364C49.1032 74.446 48.5541 75.0557 47.8553 75.5638C45.8586 77.0371 43.6123 78.0532 41.3162 79.0694C40.6173 79.3742 39.7688 79.6282 39.2696 80.1363C35.0267 84.658 30.8836 89.2305 26.6905 93.7522C26.3411 94.1079 26.2912 94.4635 26.441 94.9208C27.04 96.8006 28.0882 98.3756 29.2862 99.8997C31.1831 102.237 33.4792 104.015 36.2746 105.031C36.8237 105.234 37.3727 105.387 37.9218 104.828C42.1648 100.763 46.4576 96.699 50.7005 92.6345C51.4992 91.8724 52.1481 90.9579 52.5475 89.891C52.9468 88.9765 53.2962 88.0112 53.6955 87.0967C54.644 84.8104 55.792 82.6258 57.7887 81C58.4876 80.4411 58.9867 79.6282 59.5358 78.8661C59.8852 78.4089 59.8852 77.9008 59.4859 77.3928C58.7871 76.5291 58.8869 75.5129 59.5857 74.6493C59.8852 74.3952 60.1348 74.192 60.4343 73.8364ZM83.8453 40.5078C84.6939 42.2351 84.644 42.8448 83.2962 44.1658C78.8037 48.7383 74.3611 53.3108 69.8686 57.8325C69.7188 57.9849 69.5691 58.1374 69.4193 58.3406C70.5175 59.3567 71.6157 60.3728 72.7138 61.3889C73.812 60.2712 74.8104 59.2043 75.8586 58.1374C79.5025 54.4285 83.1465 50.7705 86.7405 47.0617C87.3894 46.4012 88.0882 46.0456 88.9867 46.2996C89.3861 46.4012 89.7355 46.6044 90.1348 46.8077C91.5824 44.9279 93.03 42.9972 94.4776 41.1174C94.5774 41.0158 94.4776 40.6602 94.3777 40.5586C92.9801 39.136 91.5824 37.7134 90.1847 36.2909C90.0849 36.1893 89.7355 36.1893 89.5857 36.2401C89.0367 36.5957 88.5375 37.0021 88.0383 37.3578C86.6406 38.4247 85.243 39.4408 83.8453 40.5078Z" fill="black"/>
<path d="M31.183 0.930236C32.8801 0.981041 34.4276 1.4891 35.7254 2.50522C36.2745 2.91166 36.7737 3.47053 37.1231 4.02939C38.2212 5.8584 39.3194 7.78902 40.3677 9.66883C40.5673 10.0245 40.8668 10.2785 41.2662 10.2785C42.2146 10.2785 43.163 10.2785 44.1114 10.2785C44.5108 10.2785 44.8103 10.0245 45.0099 9.66883C46.0083 7.89063 47.0565 6.11243 48.0549 4.28342C49.0033 2.60683 50.4509 1.69232 52.2479 1.18426C53.945 0.727012 55.5923 0.87943 57.2395 1.59071C58.9367 2.3528 60.6838 3.06408 62.4309 3.77536C65.0266 4.89309 67.0732 8.34788 66.574 11.1422C66.3244 12.6664 65.8252 14.1397 65.4259 15.6639C65.2262 16.5276 64.9766 17.3913 64.777 18.255C64.7271 18.4582 64.8269 18.8139 64.9767 18.9663C65.6256 19.6776 66.3244 20.3889 67.0232 21.1001C67.3727 21.4558 67.7221 21.4558 68.1713 21.3542C70.168 20.7953 72.1647 20.2873 74.1613 19.7284C76.158 19.1695 77.9051 19.83 79.5524 20.8969C80.8003 21.7098 81.6988 22.8783 82.2479 24.3517C82.6472 25.4694 83.1464 26.5872 83.5956 27.6541C84.0449 28.8226 83.5956 30.0928 82.5474 30.55C81.4492 31.0581 80.2512 30.55 79.7021 29.3815C79.2529 28.3654 78.8036 27.3493 78.4542 26.3331C77.8552 24.5549 76.4076 23.3864 74.0615 24.1993C72.0149 24.9106 69.8685 25.3678 67.7221 25.8759C67.2229 25.9775 66.574 25.9267 66.1247 25.6727C63.6788 24.4025 61.8818 22.4719 60.534 20.084C59.985 19.1187 60.2845 18.1534 60.534 17.1881C61.0831 15.1559 61.6322 13.1236 62.1314 11.0914C62.4309 9.87206 61.782 8.34788 60.6838 7.83983C58.787 6.97613 56.8402 6.16324 54.8935 5.40115C53.5956 4.89309 52.198 5.50276 51.4991 6.7221C50.3011 8.75433 49.1031 10.8374 47.955 12.8696C47.5557 13.5809 46.9567 13.9873 46.158 14.0889C43.762 14.4446 41.366 14.4446 38.97 14.0889C38.1214 13.9873 37.5723 13.5809 37.1231 12.8188C35.975 10.7866 34.8269 8.80514 33.6788 6.82371C32.8801 5.40115 31.3826 4.89309 29.8851 5.50276C28.1381 6.26485 26.3411 6.97613 24.594 7.73821C23.2961 8.29708 22.5973 9.77045 22.9966 11.1422C23.5956 13.3777 24.1447 15.6639 24.7437 17.9502C24.9933 18.8139 24.8935 19.576 24.4442 20.3381C23.1464 22.4719 21.4492 24.1993 19.3527 25.5203C18.2545 26.2315 17.1564 25.8759 16.0582 25.5711C14.0615 25.0122 12.0648 24.4533 10.0682 23.9453C9.06984 23.6912 7.52242 24.4533 7.02325 25.5711C6.22458 27.5017 5.42591 29.4323 4.67716 31.3629C4.17799 32.5823 4.72708 34.1064 5.82525 34.8177C7.87184 36.1895 9.96834 37.5612 12.0149 38.8822C12.7637 39.3394 13.1131 39.9999 13.2628 40.8636C13.6123 43.1499 13.6123 45.4361 13.2628 47.7224C13.163 48.4845 12.8136 49.0433 12.1647 49.399C10.1181 50.6183 8.0715 51.8377 6.02492 53.057C4.777 53.8191 4.22791 55.3433 4.777 56.715C5.52575 58.5948 6.2745 60.4746 7.07317 62.3545C7.62225 63.6246 9.06984 64.3359 10.4176 63.9802C12.7138 63.3706 14.96 62.7101 17.2562 62.1512C17.955 61.948 18.6539 62.0496 19.3028 62.4561C21.4991 63.777 23.1963 65.5552 24.544 67.7399C25.2429 68.9084 24.8435 70.0261 24.544 71.1439C23.995 73.1761 23.4958 75.1575 22.9467 77.1898C22.6971 78.1043 23.396 79.3744 24.3444 80.1365C24.7936 80.4413 25.193 80.8478 25.4425 81.305C25.8419 82.1179 25.5923 83.0832 24.9434 83.6929C24.2945 84.3026 23.396 84.455 22.5474 83.9977C20.0016 82.7276 17.9051 78.8664 18.9034 75.818C19.5524 73.8366 20.0016 71.8043 20.4509 69.8229C20.5008 69.5689 20.4509 69.1624 20.2512 68.9592C19.5524 68.1463 18.8036 67.3842 18.0049 66.673C17.8552 66.5205 17.5058 66.4697 17.3061 66.5205C15.0599 67.0794 12.8635 67.7399 10.6173 68.2987C9.06984 68.6544 7.62225 68.2479 6.2745 67.4858C4.82691 66.673 3.67883 65.5044 3.07982 63.8786C2.33107 61.948 1.5324 60.0682 0.733734 58.1376C-0.464269 55.1908 0.933402 50.9232 3.57899 49.5514C5.376 48.5861 7.12309 47.4684 8.92009 46.4014C9.36934 46.1474 9.56901 45.8426 9.56901 45.3853V45.3345C9.76868 42.6418 9.76868 42.6418 7.52242 41.1684C6.12475 40.2539 4.777 39.3394 3.37933 38.4249C1.48249 37.2056 0.683819 35.3258 0.384318 33.1919C0.134734 31.3121 0.833569 29.6863 1.5324 28.0605C2.08149 26.7396 2.63057 25.4186 3.17966 24.0977C4.22791 21.5066 7.27283 19.4744 9.96834 19.6776C10.9667 19.7284 11.965 20.1348 12.9134 20.3889C14.4109 20.7953 15.8585 21.2018 17.356 21.5574C17.5557 21.6082 17.9051 21.5574 18.0549 21.405C18.8535 20.6937 19.6023 19.9316 20.3011 19.1187C20.5008 18.9155 20.5008 18.4582 20.401 18.1534C19.9018 16.0704 19.3527 14.0381 18.8036 11.9551C18.2545 9.77045 18.9534 7.89063 20.2013 6.11243C21.0998 4.79148 22.4475 4.0802 23.8951 3.52133C25.742 2.81005 27.5391 1.99716 29.386 1.28588C30.0349 0.981042 30.6339 0.981041 31.183 0.930236Z" fill="black"/>
</svg>
