<svg width="41" height="39" viewBox="0 0 41 39" fill="none" xmlns="http://www.w3.org/2000/svg">
<path d="M12.0138 0.604349C14.4414 0.604349 16.1517 1.37676 17.1448 2.92159C18.1379 4.46642 18.6345 7.5009 18.6345 12.025C18.6345 16.4388 17.3655 20.9078 14.8276 25.4319C12.4 29.8457 9.97241 33.1009 7.54483 35.1975L3.90345 38.3423C2.13793 38.3423 1.25517 38.0112 1.25517 37.3492C1.25517 36.5768 1.75173 35.694 2.74483 34.7009C6.82759 28.7423 8.86897 24.5492 8.86897 22.1216C8.86897 19.5837 7.43448 17.4319 4.56552 15.6664C1.8069 13.7906 0.427586 11.9699 0.427586 10.2043C0.427586 8.32849 1.75172 6.28711 4.4 4.08021C7.15862 1.76297 9.69655 0.604349 12.0138 0.604349ZM35.1862 0.604349C39.0483 0.604349 40.9793 3.91469 40.9793 10.5354C40.9793 17.1561 39.269 22.894 35.8483 27.7492C32.9793 31.8319 30.2759 34.9216 27.7379 37.0181L26.2483 38.3423C24.4828 38.3423 23.6 38.0112 23.6 37.3492C23.6 36.5768 24.0966 35.694 25.0897 34.7009C29.1724 28.7423 31.2138 24.5492 31.2138 22.1216C31.2138 19.5837 29.7793 17.4319 26.9103 15.6664C24.1517 13.7906 22.7724 11.9699 22.7724 10.2043C22.7724 8.32849 24.0966 6.28711 26.7448 4.08021C29.5035 1.76297 32.3172 0.604349 35.1862 0.604349Z" fill="#828282"/>
</svg>
