<svg width="23" height="16" viewBox="0 0 23 16" fill="none" xmlns="http://www.w3.org/2000/svg">
<path fill-rule="evenodd" clip-rule="evenodd" d="M0.41455 8.00003C0.41455 7.78883 0.497969 7.58628 0.646455 7.43693C0.794941 7.28759 0.996331 7.20369 1.20632 7.20369L19.881 7.20369L14.8976 2.19312C14.749 2.04359 14.6654 1.84078 14.6654 1.62931C14.6654 1.41785 14.749 1.21504 14.8976 1.06551C15.0463 0.915975 15.248 0.831971 15.4582 0.831971C15.6685 0.831971 15.8701 0.915975 16.0188 1.06551L22.353 7.43622C22.4267 7.51019 22.4852 7.59807 22.5251 7.69482C22.565 7.79157 22.5856 7.89528 22.5856 8.00003C22.5856 8.10478 22.565 8.20849 22.5251 8.30524C22.4852 8.40199 22.4267 8.48987 22.353 8.56384L16.0188 14.9346C15.8701 15.0841 15.6685 15.1681 15.4582 15.1681C15.248 15.1681 15.0463 15.0841 14.8976 14.9346C14.749 14.785 14.6654 14.5822 14.6654 14.3707C14.6654 14.1593 14.749 13.9565 14.8976 13.8069L19.881 8.79637L1.20632 8.79637C0.996331 8.79637 0.794941 8.71247 0.646455 8.56313C0.497969 8.41378 0.41455 8.21123 0.41455 8.00003Z" fill="white"/>
</svg>
