<svg width="19" height="21" viewBox="0 0 19 21" fill="none" xmlns="http://www.w3.org/2000/svg">
<path d="M9.13043 10.5C12.0122 10.5 14.3478 8.1498 14.3478 5.25C14.3478 2.3502 12.0122 0 9.13043 0C6.24864 0 3.91304 2.3502 3.91304 5.25C3.91304 8.1498 6.24864 10.5 9.13043 10.5ZM12.7826 11.8125H12.1019C11.197 12.2309 10.1902 12.4688 9.13043 12.4688C8.07065 12.4688 7.06793 12.2309 6.15897 11.8125H5.47826C2.4538 11.8125 0 14.2816 0 17.325V19.0312C0 20.1182 0.876359 21 1.95652 21H16.3043C17.3845 21 18.2609 20.1182 18.2609 19.0312V17.325C18.2609 14.2816 15.8071 11.8125 12.7826 11.8125Z" fill="#F62C10"/>
</svg>
